<?xml version="1.0" encoding="UTF-8" standalone="no"?>
<svg
   xmlns:dc="http://purl.org/dc/elements/1.1/"
   xmlns:cc="http://creativecommons.org/ns#"
   xmlns:rdf="http://www.w3.org/1999/02/22-rdf-syntax-ns#"
   xmlns:svg="http://www.w3.org/2000/svg"
   xmlns="http://www.w3.org/2000/svg"
   xmlns:sodipodi="http://sodipodi.sourceforge.net/DTD/sodipodi-0.dtd"
   xmlns:inkscape="http://www.inkscape.org/namespaces/inkscape"
   id="Layer_1"
   data-name="Layer 1"
   viewBox="0 0 900 400"
   version="1.1"
   sodipodi:docname="logo_LT.svg"
   inkscape:version="0.92.4 (5da689c313, 2019-01-14)">
  <metadata
     id="metadata548">
    <rdf:RDF>
      <cc:Work
         rdf:about="">
        <dc:format>image/svg+xml</dc:format>
        <dc:type
           rdf:resource="http://purl.org/dc/dcmitype/StillImage" />
        <dc:title>VU KI logo</dc:title>
      </cc:Work>
    </rdf:RDF>
  </metadata>
  <sodipodi:namedview
     pagecolor="#ffffff"
     bordercolor="#666666"
     borderopacity="1"
     objecttolerance="10"
     gridtolerance="10"
     guidetolerance="10"
     inkscape:pageopacity="0"
     inkscape:pageshadow="2"
     inkscape:window-width="2560"
     inkscape:window-height="1377"
     id="namedview546"
     showgrid="false"
     inkscape:zoom="2.4388889"
     inkscape:cx="450"
     inkscape:cy="200"
     inkscape:window-x="-8"
     inkscape:window-y="-8"
     inkscape:window-maximized="1"
     inkscape:current-layer="Layer_1" />
  <defs
     id="defs282">
    <style
       id="style280">.cls-1{fill:#3c3c3b;}.cls-2,.cls-3{fill:#7b003d;}.cls-2{fill-rule:evenodd;}</style>
  </defs>
  <title
     id="title284">VU KI logo</title>
  <path
     class="cls-1"
     d="M440.36,60.23h12.22l10.74,35,10.71-35h12.43l-17.89,49.52H458Z"
     id="path286"
     style="fill:#ffffff" />
  <path
     class="cls-1"
     d="M490.47,64.34a6.55,6.55,0,0,1,2-4.87,6.71,6.71,0,0,1,5-2,7.15,7.15,0,0,1,5,2,6.15,6.15,0,0,1,1.48,2.19,7.05,7.05,0,0,1,.52,2.7,6.78,6.78,0,0,1-.52,2.66,6.53,6.53,0,0,1-1.48,2.19,7.12,7.12,0,0,1-2.23,1.48,6.92,6.92,0,0,1-2.75.54,6.79,6.79,0,0,1-2.73-.54,7,7,0,0,1-2.19-1.48A6.83,6.83,0,0,1,491,67,6.62,6.62,0,0,1,490.47,64.34ZM492,109.75V75.67h10.81v34.08Z"
     id="path288"
     style="fill:#ffffff" />
  <path
     class="cls-1"
     d="M513.3,109.75V60.23h10.81v49.52Z"
     id="path290"
     style="fill:#ffffff" />
  <path
     class="cls-1"
     d="M533.3,109.75V75.67h10.81V80.6a9.8,9.8,0,0,1,4.31-4.28,14.85,14.85,0,0,1,7-1.52,13.27,13.27,0,0,1,5.8,1.11,10.9,10.9,0,0,1,3.69,2.79A10.12,10.12,0,0,1,567,83.26a32,32,0,0,1,.52,6.25v20.24H556.71V92.28a11.94,11.94,0,0,0-1.31-5.93Q554.08,84,550.77,84a5.73,5.73,0,0,0-5,2.33,10.68,10.68,0,0,0-1.64,6.27v17.13Z"
     id="path292"
     style="fill:#ffffff" />
  <path
     class="cls-1"
     d="M576,64.34a6.55,6.55,0,0,1,2-4.87,6.71,6.71,0,0,1,4.95-2,7.15,7.15,0,0,1,5,2,6.29,6.29,0,0,1,1.48,2.19,7.05,7.05,0,0,1,.52,2.7,6.78,6.78,0,0,1-.52,2.66,6.68,6.68,0,0,1-1.48,2.19,7.12,7.12,0,0,1-2.23,1.48,6.92,6.92,0,0,1-2.75.54,6.92,6.92,0,0,1-6.4-4.21A6.62,6.62,0,0,1,576,64.34Zm1.55,45.41V75.67h10.81v34.08Z"
     id="path294"
     style="fill:#ffffff" />
  <path
     class="cls-1"
     d="M596.67,92.69a20.08,20.08,0,0,1,1.23-7.11,17,17,0,0,1,3.43-5.65,16.61,16.61,0,0,1,5.15-3.75,14.87,14.87,0,0,1,6.38-1.38,13,13,0,0,1,6.63,1.62,11.13,11.13,0,0,1,4.22,4.11V75.67h10.81v34.08H623.71V105a10.55,10.55,0,0,1-4.1,4,13.14,13.14,0,0,1-6.75,1.66,14.71,14.71,0,0,1-6.36-1.39,16.34,16.34,0,0,1-5.17-3.76,17.27,17.27,0,0,1-3.43-5.66A20.13,20.13,0,0,1,596.67,92.69Zm10.81,0a9.53,9.53,0,0,0,.6,3.37,8.65,8.65,0,0,0,1.66,2.76,8.05,8.05,0,0,0,2.53,1.87,7.61,7.61,0,0,0,3.31.7,7.73,7.73,0,0,0,3.33-.7,8,8,0,0,0,2.55-1.87,8.46,8.46,0,0,0,1.65-2.74,9.52,9.52,0,0,0,.6-3.39,9.09,9.09,0,0,0-.6-3.31,9.3,9.3,0,0,0-1.65-2.77,7.6,7.6,0,0,0-2.54-1.9,8.36,8.36,0,0,0-6.65,0,7.57,7.57,0,0,0-2.53,1.9,9.54,9.54,0,0,0-1.66,2.77A9.09,9.09,0,0,0,607.48,92.69Z"
     id="path296"
     style="fill:#ffffff" />
  <path
     class="cls-1"
     d="M643.26,95.9V75.67h10.81V93.14a12,12,0,0,0,1.31,6c.87,1.53,2.44,2.29,4.69,2.29a5.59,5.59,0,0,0,5-2.33,10.93,10.93,0,0,0,1.6-6.3V75.67h10.81v34.08H666.64v-4.87a9.91,9.91,0,0,1-4.3,4.22,14.76,14.76,0,0,1-6.92,1.52,13.27,13.27,0,0,1-5.82-1.11,11.07,11.07,0,0,1-3.7-2.8,9.91,9.91,0,0,1-2.13-4.56A32.83,32.83,0,0,1,643.26,95.9Z"
     id="path298"
     style="fill:#ffffff" />
  <path
     class="cls-1"
     d="M684.36,98.36H695a3.63,3.63,0,0,0,1.52,3.28,8.18,8.18,0,0,0,7.14.34,2.23,2.23,0,0,0,1.26-2.15,2,2,0,0,0-.54-1.44,4.48,4.48,0,0,0-1.64-1c-.74-.29-1.68-.62-2.82-1l-4.16-1.29c-1.45-.46-2.81-.94-4.09-1.43a13.76,13.76,0,0,1-3.37-1.85,7.93,7.93,0,0,1-2.26-2.7,8.57,8.57,0,0,1-.81-3.93,9.7,9.7,0,0,1,1.07-4.67,9.06,9.06,0,0,1,3-3.24,14.47,14.47,0,0,1,4.62-1.92,26.13,26.13,0,0,1,5.94-.64,23,23,0,0,1,6.84.9,13.46,13.46,0,0,1,4.7,2.45,9.73,9.73,0,0,1,2.71,3.66,11.61,11.61,0,0,1,.88,4.53H704.29A4.61,4.61,0,0,0,703.2,83a4.25,4.25,0,0,0-3.3-1.18,5.42,5.42,0,0,0-2.9.75,2.44,2.44,0,0,0-1.21,2.22,2.19,2.19,0,0,0,.58,1.6A5,5,0,0,0,698,87.46c.74.32,1.65.65,2.73,1l3.73,1.18c1.52.39,2.94.82,4.25,1.3a15.85,15.85,0,0,1,3.47,1.74,7.69,7.69,0,0,1,2.38,2.57,7.82,7.82,0,0,1,.88,3.92,10.7,10.7,0,0,1-1.24,5.34,10.27,10.27,0,0,1-3.34,3.59,14.15,14.15,0,0,1-4.85,2,27.21,27.21,0,0,1-5.8.61q-7.56,0-11.73-3.16T684.36,98.36Z"
     id="path300"
     style="fill:#ffffff" />
  <path
     class="cls-1"
     d="M444.81,174.49V154.26h10.81v17.47a12,12,0,0,0,1.31,6c.87,1.53,2.44,2.3,4.69,2.3a5.6,5.6,0,0,0,5-2.34,10.93,10.93,0,0,0,1.6-6.3V154.26H479v34.08H468.19v-4.87a9.91,9.91,0,0,1-4.3,4.22,14.76,14.76,0,0,1-6.92,1.52,13.27,13.27,0,0,1-5.82-1.11,10.94,10.94,0,0,1-3.7-2.8,9.92,9.92,0,0,1-2.13-4.55A32.94,32.94,0,0,1,444.81,174.49Z"
     id="path302"
     style="fill:#ffffff" />
  <path
     class="cls-1"
     d="M488.16,188.34V154.26H499v4.93a9.85,9.85,0,0,1,4.31-4.28,14.85,14.85,0,0,1,7-1.52,13.27,13.27,0,0,1,5.8,1.11,10.9,10.9,0,0,1,3.69,2.79,10.24,10.24,0,0,1,2.15,4.56,33,33,0,0,1,.51,6.26v20.23H511.57V170.87a11.87,11.87,0,0,0-1.31-5.92q-1.32-2.34-4.63-2.34a5.71,5.71,0,0,0-5,2.34,10.63,10.63,0,0,0-1.64,6.26v17.13Z"
     id="path304"
     style="fill:#ffffff" />
  <path
     class="cls-1"
     d="M530.81,142.93a6.55,6.55,0,0,1,2-4.87,6.75,6.75,0,0,1,5-2,7.15,7.15,0,0,1,5,1.95,6.15,6.15,0,0,1,1.48,2.19,7.05,7.05,0,0,1,.52,2.7,6.78,6.78,0,0,1-.52,2.66,6.53,6.53,0,0,1-1.48,2.19,7.33,7.33,0,0,1-2.23,1.49,7.09,7.09,0,0,1-2.75.53,7,7,0,0,1-2.73-.53,7.15,7.15,0,0,1-2.19-1.49,6.83,6.83,0,0,1-1.48-2.19A6.62,6.62,0,0,1,530.81,142.93Zm1.55,45.41V154.26h10.81v34.08Z"
     id="path306"
     style="fill:#ffffff" />
  <path
     class="cls-1"
     d="M548.91,154.26h11.33l8.25,21.41,8.36-21.41h11.33l-15.44,34.08H564.1Z"
     id="path308"
     style="fill:#ffffff" />
  <path
     class="cls-1"
     d="M588.66,171.28a20.78,20.78,0,0,1,1.15-7,16,16,0,0,1,3.45-5.68,16.3,16.3,0,0,1,5.61-3.85,19.41,19.41,0,0,1,7.63-1.42,20.33,20.33,0,0,1,7.4,1.28,16.47,16.47,0,0,1,5.58,3.51,15.23,15.23,0,0,1,3.54,5.3,17.5,17.5,0,0,1,1.25,6.63c0,.67,0,1.24-.07,1.73s-.14,1.19-.28,2.14H599.47a9.75,9.75,0,0,0,.4,2.84,6.42,6.42,0,0,0,1.24,2.34,5.73,5.73,0,0,0,2.27,1.57,9.32,9.32,0,0,0,3.46.57,7.47,7.47,0,0,0,4.37-1,5.36,5.36,0,0,0,2-2.58h10.64a12.36,12.36,0,0,1-1.74,4.53,14.13,14.13,0,0,1-3.44,3.69,16.7,16.7,0,0,1-5,2.52,21.65,21.65,0,0,1-6.64.94,20.77,20.77,0,0,1-7.87-1.39,15.84,15.84,0,0,1-9.26-9.56A20.62,20.62,0,0,1,588.66,171.28Zm10.81-3.59h14.19a5.83,5.83,0,0,0-1.95-4.62,7.59,7.59,0,0,0-5.14-1.7A7.81,7.81,0,0,0,601.5,163,5.64,5.64,0,0,0,599.47,167.69Z"
     id="path310"
     style="fill:#ffffff" />
  <path
     class="cls-1"
     d="M631.62,188.34V154.26h10.81v5.52a11.29,11.29,0,0,1,4-4.26,11.63,11.63,0,0,1,6.56-1.85,7.57,7.57,0,0,1,3.11.59v9.84c-.76-.18-1.4-.32-1.92-.4a11.64,11.64,0,0,0-1.77-.12,10,10,0,0,0-7.29,2.59q-2.7,2.6-2.7,8.88v13.29Z"
     id="path312"
     style="fill:#ffffff" />
  <path
     class="cls-1"
     d="M658.18,177h10.61a3.63,3.63,0,0,0,1.51,3.28,8.18,8.18,0,0,0,7.14.34,2.23,2.23,0,0,0,1.26-2.15,2,2,0,0,0-.54-1.44,4.62,4.62,0,0,0-1.64-1c-.73-.29-1.68-.62-2.82-1l-4.16-1.3c-1.45-.46-2.81-.94-4.09-1.43a13.76,13.76,0,0,1-3.37-1.85,8,8,0,0,1-2.26-2.69,8.64,8.64,0,0,1-.81-3.94,9.63,9.63,0,0,1,1.07-4.66,9,9,0,0,1,3-3.25,14.47,14.47,0,0,1,4.62-1.92,26.16,26.16,0,0,1,5.95-.64,22.94,22.94,0,0,1,6.83.9,13.46,13.46,0,0,1,4.7,2.45,9.73,9.73,0,0,1,2.71,3.66,11.61,11.61,0,0,1,.88,4.53H678.11a4.61,4.61,0,0,0-1.09-3.28,4.25,4.25,0,0,0-3.3-1.18,5.42,5.42,0,0,0-2.9.75,2.44,2.44,0,0,0-1.21,2.22,2.19,2.19,0,0,0,.58,1.6,5.13,5.13,0,0,0,1.67,1.08,28.52,28.52,0,0,0,2.73,1l3.73,1.18c1.52.39,2.94.82,4.25,1.3a15.85,15.85,0,0,1,3.47,1.74,7.23,7.23,0,0,1,3.26,6.49,10.7,10.7,0,0,1-1.24,5.34,10.27,10.27,0,0,1-3.34,3.59,14.15,14.15,0,0,1-4.85,2,26.58,26.58,0,0,1-5.8.61q-7.56,0-11.73-3.16T658.18,177Z"
     id="path314"
     style="fill:#ffffff" />
  <path
     class="cls-1"
     d="M696.21,142.93a6.58,6.58,0,0,1,2-4.87,6.79,6.79,0,0,1,5-2,7.12,7.12,0,0,1,2.75.52,7,7,0,0,1,2.22,1.43,6.18,6.18,0,0,1,1.49,2.19,7.25,7.25,0,0,1,.52,2.7,7,7,0,0,1-.52,2.66,6.55,6.55,0,0,1-1.49,2.19,6.88,6.88,0,0,1-5,2,7,7,0,0,1-2.73-.53,7,7,0,0,1-2.19-1.49,6.86,6.86,0,0,1-1.49-2.19A6.79,6.79,0,0,1,696.21,142.93Zm1.55,45.41V154.26h10.81v34.08Z"
     id="path316"
     style="fill:#ffffff" />
  <path
     class="cls-1"
     d="M715.69,162.3v-8H721V144.14h10.81v10.12h7.73v8h-7.73v12.12a10.56,10.56,0,0,0,.34,3,4.11,4.11,0,0,0,1,1.75,3,3,0,0,0,1.55.82,9.86,9.86,0,0,0,2,.19c.46,0,1,0,1.77-.05a14.89,14.89,0,0,0,1.86-.19v8.39c-.81.14-1.81.26-3,.38s-2.63.18-4.27.18a31.85,31.85,0,0,1-4-.28,9.28,9.28,0,0,1-3.92-1.45,8.71,8.71,0,0,1-3-3.61,15.66,15.66,0,0,1-1.17-6.68V162.3Z"
     id="path318"
     style="fill:#ffffff" />
  <path
     class="cls-1"
     d="M743.25,171.28a20.78,20.78,0,0,1,1.15-7,16.13,16.13,0,0,1,3.44-5.68,16.44,16.44,0,0,1,5.62-3.85,19.37,19.37,0,0,1,7.63-1.42,20.27,20.27,0,0,1,7.39,1.28,16.52,16.52,0,0,1,5.59,3.51,15.23,15.23,0,0,1,3.54,5.3,17.5,17.5,0,0,1,1.25,6.63c0,.67,0,1.24-.07,1.73s-.14,1.19-.28,2.14H754.06a9.75,9.75,0,0,0,.4,2.84,6.42,6.42,0,0,0,1.24,2.34,5.66,5.66,0,0,0,2.27,1.57,9.32,9.32,0,0,0,3.46.57,7.44,7.44,0,0,0,4.36-1,5.44,5.44,0,0,0,2-2.58h10.64a12.54,12.54,0,0,1-1.74,4.53,14.13,14.13,0,0,1-3.44,3.69,16.7,16.7,0,0,1-5,2.52,21.65,21.65,0,0,1-6.64.94,20.77,20.77,0,0,1-7.87-1.39,15.84,15.84,0,0,1-9.26-9.56A20.39,20.39,0,0,1,743.25,171.28Zm10.81-3.59h14.19a5.83,5.83,0,0,0-2-4.62,7.59,7.59,0,0,0-5.14-1.7,7.82,7.82,0,0,0-5.08,1.64A5.66,5.66,0,0,0,754.06,167.69Z"
     id="path320"
     style="fill:#ffffff" />
  <path
     class="cls-1"
     d="M781.79,162.3v-8h5.32V144.14h10.81v10.12h7.74v8h-7.74v12.12a10.56,10.56,0,0,0,.34,3,4.11,4.11,0,0,0,1,1.75,3,3,0,0,0,1.55.82,10,10,0,0,0,2.06.19c.46,0,1,0,1.76-.05a14.89,14.89,0,0,0,1.86-.19v8.39c-.8.14-1.81.26-3,.38s-2.63.18-4.26.18a31.88,31.88,0,0,1-4-.28,9.24,9.24,0,0,1-3.91-1.45,8.64,8.64,0,0,1-3-3.61,15.5,15.5,0,0,1-1.18-6.68V162.3Z"
     id="path322"
     style="fill:#ffffff" />
  <path
     class="cls-1"
     d="M809.9,171.28a18.38,18.38,0,0,1,1.3-6.91,16.59,16.59,0,0,1,3.75-5.69,18,18,0,0,1,5.94-3.91,20.63,20.63,0,0,1,7.94-1.45,21,21,0,0,1,8,1.45,17.9,17.9,0,0,1,6,3.91,16.69,16.69,0,0,1,3.73,5.69,19.35,19.35,0,0,1,0,13.84,16.67,16.67,0,0,1-3.73,5.71,17.9,17.9,0,0,1-6,3.91,21,21,0,0,1-8,1.45,20.63,20.63,0,0,1-7.94-1.45,18,18,0,0,1-5.94-3.91,16.54,16.54,0,0,1-3.75-5.7A18.38,18.38,0,0,1,809.9,171.28Zm10.81,0a10,10,0,0,0,.57,3.43,8.44,8.44,0,0,0,1.63,2.79,7.55,7.55,0,0,0,2.54,1.88,7.86,7.86,0,0,0,3.31.67,8.31,8.31,0,0,0,3.37-.67,7.46,7.46,0,0,0,2.59-1.88,9.41,9.41,0,0,0,1.66-2.77,10,10,0,0,0,0-6.82,9,9,0,0,0-1.66-2.79,7.74,7.74,0,0,0-2.57-1.88,8.16,8.16,0,0,0-3.39-.7,7.72,7.72,0,0,0-3.31.7,7.83,7.83,0,0,0-2.54,1.88,8.24,8.24,0,0,0-1.63,2.79A9.94,9.94,0,0,0,820.71,171.28Z"
     id="path324"
     style="fill:#ffffff" />
  <path
     class="cls-1"
     d="M445.37,266.93V217.41h11.46v21l16-21H486.6L467,242.17l19.58,24.76H472.82l-16-20.93v20.93Z"
     id="path326"
     style="fill:#ffffff" />
  <path
     class="cls-1"
     d="M485.46,249.87a18.29,18.29,0,0,1,1.3-6.9,16.66,16.66,0,0,1,3.74-5.7,18.22,18.22,0,0,1,5.94-3.91,20.71,20.71,0,0,1,7.95-1.45,21,21,0,0,1,8,1.45,18,18,0,0,1,6,3.91,16.63,16.63,0,0,1,3.73,5.7,18.67,18.67,0,0,1,1.28,6.9,18.91,18.91,0,0,1-1.28,6.93,16.67,16.67,0,0,1-3.73,5.71,18,18,0,0,1-6,3.91,21,21,0,0,1-8,1.45,20.71,20.71,0,0,1-7.95-1.45,18.22,18.22,0,0,1-5.94-3.91,16.66,16.66,0,0,1-3.74-5.7A18.38,18.38,0,0,1,485.46,249.87Zm10.81,0a10,10,0,0,0,.57,3.43,8.59,8.59,0,0,0,1.62,2.79A7.65,7.65,0,0,0,501,258a7.94,7.94,0,0,0,3.32.67,8.31,8.31,0,0,0,3.37-.67,7.55,7.55,0,0,0,2.59-1.88,9.18,9.18,0,0,0,1.65-2.77,9.83,9.83,0,0,0,0-6.82,8.81,8.81,0,0,0-1.65-2.79,7.78,7.78,0,0,0-2.58-1.88,8.07,8.07,0,0,0-3.38-.69,7.8,7.8,0,0,0-3.32.69,7.93,7.93,0,0,0-2.54,1.88,8.39,8.39,0,0,0-1.62,2.79A9.94,9.94,0,0,0,496.27,249.87Z"
     id="path328"
     style="fill:#ffffff" />
  <path
     class="cls-1"
     d="M530.12,266.93V232.85h10.81v4.93a9.82,9.82,0,0,1,4.32-4.28,14.78,14.78,0,0,1,6.94-1.52,13.24,13.24,0,0,1,5.8,1.11,10.8,10.8,0,0,1,3.69,2.8,10.16,10.16,0,0,1,2.15,4.55,33,33,0,0,1,.51,6.26v20.23H553.53V249.46a11.87,11.87,0,0,0-1.31-5.92c-.87-1.56-2.42-2.34-4.63-2.34a5.71,5.71,0,0,0-5,2.34,10.63,10.63,0,0,0-1.64,6.26v17.13Z"
     id="path330"
     style="fill:#ffffff" />
  <path
     class="cls-1"
     d="M569.59,240.89v-8h6.15v-3a17.05,17.05,0,0,1,1.28-7.26,10.2,10.2,0,0,1,3.11-4,9.34,9.34,0,0,1,4-1.66,25.29,25.29,0,0,1,4-.34,22.47,22.47,0,0,1,3.93.27,19.32,19.32,0,0,1,2.46.6v7.64c-.58-.14-1.12-.26-1.61-.34a12.16,12.16,0,0,0-1.88-.12,11.08,11.08,0,0,0-1.66.12,3.28,3.28,0,0,0-1.43.58,3.21,3.21,0,0,0-1,1.33,5.81,5.81,0,0,0-.4,2.4v3.72h8v8h-8v26H575.74v-26Z"
     id="path332"
     style="fill:#ffffff" />
  <path
     class="cls-1"
     d="M599.5,253.08V232.85h10.81v17.47a12,12,0,0,0,1.31,6c.87,1.53,2.44,2.3,4.69,2.3a5.6,5.6,0,0,0,5-2.34,10.93,10.93,0,0,0,1.6-6.3V232.85h10.81v34.08H622.88v-4.87a9.86,9.86,0,0,1-4.3,4.22,14.76,14.76,0,0,1-6.92,1.52,13.27,13.27,0,0,1-5.82-1.11,10.94,10.94,0,0,1-3.7-2.8,9.92,9.92,0,0,1-2.13-4.55A32.94,32.94,0,0,1,599.5,253.08Z"
     id="path334"
     style="fill:#ffffff" />
  <path
     class="cls-1"
     d="M640.6,249.89a20.13,20.13,0,0,1,1.16-6.78,16.23,16.23,0,0,1,3.49-5.73,17,17,0,0,1,5.8-4,20.33,20.33,0,0,1,8.06-1.49,20.62,20.62,0,0,1,7.39,1.21,16.14,16.14,0,0,1,5.31,3.23,14.51,14.51,0,0,1,3.33,4.59,15.65,15.65,0,0,1,1.38,5.27H665.71a5.76,5.76,0,0,0-1.85-3.62,6.54,6.54,0,0,0-4.61-1.45,8.33,8.33,0,0,0-3.59.7,6.62,6.62,0,0,0-2.43,1.92,7.62,7.62,0,0,0-1.39,2.79,13,13,0,0,0-.43,3.34,12,12,0,0,0,.47,3.36,8,8,0,0,0,1.41,2.79,6.64,6.64,0,0,0,2.51,1.9,8.76,8.76,0,0,0,3.66.7,6.51,6.51,0,0,0,4.18-1.15,7.07,7.07,0,0,0,2.14-3.37h10.81a15.2,15.2,0,0,1-1.66,5.39,14.51,14.51,0,0,1-3.5,4.35,16.54,16.54,0,0,1-5.3,2.94,21.61,21.61,0,0,1-7,1.07,20.33,20.33,0,0,1-8.06-1.49,17.06,17.06,0,0,1-5.8-4,16.23,16.23,0,0,1-3.49-5.73A20.12,20.12,0,0,1,640.6,249.89Z"
     id="path336"
     style="fill:#ffffff" />
  <path
     class="cls-1"
     d="M683.22,221.52a6.55,6.55,0,0,1,2-4.87,6.75,6.75,0,0,1,4.95-2,7.15,7.15,0,0,1,5,1.95,6.15,6.15,0,0,1,1.48,2.19,7.05,7.05,0,0,1,.52,2.7,6.78,6.78,0,0,1-.52,2.66,6.53,6.53,0,0,1-1.48,2.19,7.33,7.33,0,0,1-2.23,1.49,7.09,7.09,0,0,1-2.75.53,7,7,0,0,1-2.73-.53,7.27,7.27,0,0,1-2.19-1.49,6.83,6.83,0,0,1-1.48-2.19A6.62,6.62,0,0,1,683.22,221.52Zm1.56,45.41V232.85h10.81v34.08Z"
     id="path338"
     style="fill:#ffffff" />
  <path
     class="cls-1"
     d="M702,274.09a12.83,12.83,0,0,0,1.57.34,10.26,10.26,0,0,0,1,.07,3.05,3.05,0,0,0,2.27-.74,3.8,3.8,0,0,0,.7-2.63V232.85h10.82v39.4a16.83,16.83,0,0,1-.75,5.51,8.07,8.07,0,0,1-2,3.32,7,7,0,0,1-3,1.65,13.16,13.16,0,0,1-3.6.47c-.62,0-1.26,0-1.94-.07s-1.34-.11-2-.18-1.23-.16-1.8-.28-1-.24-1.36-.35Zm4-52.57a6.58,6.58,0,0,1,2-4.87,6.74,6.74,0,0,1,4.94-2,7.18,7.18,0,0,1,2.76.52,6.78,6.78,0,0,1,2.22,1.43,6.42,6.42,0,0,1,1.48,2.19,6.89,6.89,0,0,1,.54,2.7,6.62,6.62,0,0,1-.54,2.66,6.83,6.83,0,0,1-1.48,2.19,6.94,6.94,0,0,1-2.22,1.49,7.18,7.18,0,0,1-2.76.53,6.94,6.94,0,0,1-2.72-.53,7.1,7.1,0,0,1-2.18-1.49,6.86,6.86,0,0,1-1.49-2.19A6.79,6.79,0,0,1,706.05,221.52Z"
     id="path340"
     style="fill:#ffffff" />
  <path
     class="cls-1"
     d="M726.7,249.87a20.12,20.12,0,0,1,1.23-7.11,16.87,16.87,0,0,1,3.44-5.65,16.61,16.61,0,0,1,5.14-3.75,14.87,14.87,0,0,1,6.38-1.38,12.93,12.93,0,0,1,6.63,1.63,11.08,11.08,0,0,1,4.23,4.11v-4.87h10.81v34.08H753.75v-4.8a10.58,10.58,0,0,1-4.11,4,13.14,13.14,0,0,1-6.75,1.66,14.88,14.88,0,0,1-6.36-1.38,16.22,16.22,0,0,1-5.16-3.77,17,17,0,0,1-3.44-5.66A20.13,20.13,0,0,1,726.7,249.87Zm10.81,0a9.32,9.32,0,0,0,.61,3.37,8.45,8.45,0,0,0,1.65,2.76,8.17,8.17,0,0,0,2.53,1.87,7.61,7.61,0,0,0,3.31.71,7.73,7.73,0,0,0,3.33-.71,8,8,0,0,0,2.55-1.87,8.46,8.46,0,0,0,1.65-2.74,9.53,9.53,0,0,0,.61-3.39,9.09,9.09,0,0,0-.61-3.31,9.3,9.3,0,0,0-1.65-2.77,7.81,7.81,0,0,0-11.72,0,9.3,9.3,0,0,0-1.65,2.77A8.89,8.89,0,0,0,737.51,249.87Z"
     id="path342"
     style="fill:#ffffff" />
  <path
     class="cls-1"
     d="M773.29,253.08V232.85H784.1v17.47a12,12,0,0,0,1.31,6q1.32,2.3,4.69,2.3a5.59,5.59,0,0,0,5-2.34,10.92,10.92,0,0,0,1.61-6.3V232.85h10.81v34.08H796.68v-4.87a9.93,9.93,0,0,1-4.31,4.22,14.76,14.76,0,0,1-6.92,1.52,13.3,13.3,0,0,1-5.82-1.11,11,11,0,0,1-3.7-2.8,9.92,9.92,0,0,1-2.13-4.55A32.94,32.94,0,0,1,773.29,253.08Z"
     id="path344"
     style="fill:#ffffff" />
  <path
     class="cls-1"
     d="M814.39,255.54H825a3.61,3.61,0,0,0,1.52,3.28,8.16,8.16,0,0,0,7.13.34,2.23,2.23,0,0,0,1.26-2.14,2,2,0,0,0-.54-1.45,4.53,4.53,0,0,0-1.64-1c-.73-.29-1.67-.62-2.82-1l-4.15-1.3c-1.45-.46-2.82-.94-4.1-1.43A13.69,13.69,0,0,1,818.3,249a7.91,7.91,0,0,1-2.27-2.69,8.64,8.64,0,0,1-.81-3.94,9.63,9.63,0,0,1,1.07-4.66,9,9,0,0,1,3-3.25,14.44,14.44,0,0,1,4.63-1.92,26,26,0,0,1,5.94-.64,22.94,22.94,0,0,1,6.83.9,13.37,13.37,0,0,1,4.7,2.45,9.62,9.62,0,0,1,2.71,3.66,11.61,11.61,0,0,1,.88,4.53H834.32a4.61,4.61,0,0,0-1.09-3.28,4.28,4.28,0,0,0-3.3-1.18,5.42,5.42,0,0,0-2.9.75,2.43,2.43,0,0,0-1.2,2.22,2.18,2.18,0,0,0,.57,1.6,5.13,5.13,0,0,0,1.67,1.08,27.83,27.83,0,0,0,2.74,1l3.72,1.18c1.52.39,2.94.82,4.25,1.3a15.85,15.85,0,0,1,3.47,1.74,7.23,7.23,0,0,1,3.26,6.49,10.7,10.7,0,0,1-1.24,5.34,10.33,10.33,0,0,1-3.33,3.59,14.5,14.5,0,0,1-4.86,2,27.22,27.22,0,0,1-5.8.6q-7.56,0-11.73-3.16T814.39,255.54Z"
     id="path346"
     style="fill:#ffffff" />
  <path
     class="cls-1"
     d="M445,300.11a6.55,6.55,0,0,1,2-4.87,6.75,6.75,0,0,1,4.95-2,7.15,7.15,0,0,1,5,2,6.15,6.15,0,0,1,1.48,2.19,7.05,7.05,0,0,1,.52,2.7,6.78,6.78,0,0,1-.52,2.66,6.53,6.53,0,0,1-1.48,2.19,6.92,6.92,0,0,1-5,2,6.74,6.74,0,0,1-4.92-2,6.83,6.83,0,0,1-1.48-2.19A6.62,6.62,0,0,1,445,300.11Zm1.55,45.41V311.44h10.82v34.08Z"
     id="path348"
     style="fill:#ffffff" />
  <path
     class="cls-1"
     d="M467.78,345.52V311.44h10.81v4.94a9.79,9.79,0,0,1,4.32-4.29,14.81,14.81,0,0,1,6.94-1.52,13.24,13.24,0,0,1,5.8,1.11,11.07,11.07,0,0,1,3.7,2.8,10.25,10.25,0,0,1,2.14,4.55,32.94,32.94,0,0,1,.52,6.26v20.23H491.2V328.05a11.87,11.87,0,0,0-1.32-5.92q-1.31-2.34-4.62-2.34a5.72,5.72,0,0,0-5,2.34,10.7,10.7,0,0,0-1.64,6.26v17.13Z"
     id="path350"
     style="fill:#ffffff" />
  <path
     class="cls-1"
     d="M508.46,334.13h10.61a3.61,3.61,0,0,0,1.52,3.28,6.93,6.93,0,0,0,3.9,1,7.08,7.08,0,0,0,3.23-.65,2.25,2.25,0,0,0,1.26-2.15,2,2,0,0,0-.54-1.45,4.53,4.53,0,0,0-1.64-1c-.73-.29-1.67-.62-2.82-1l-4.15-1.3c-1.45-.46-2.82-.94-4.1-1.43a13.69,13.69,0,0,1-3.36-1.85,7.79,7.79,0,0,1-2.26-2.69,8.48,8.48,0,0,1-.82-3.94,9.63,9.63,0,0,1,1.07-4.66,9,9,0,0,1,3-3.25,14.44,14.44,0,0,1,4.63-1.92,26,26,0,0,1,5.94-.64,23.05,23.05,0,0,1,6.84.9,13.41,13.41,0,0,1,4.69,2.45,9.58,9.58,0,0,1,2.71,3.67,11.53,11.53,0,0,1,.88,4.52H528.39a4.62,4.62,0,0,0-1.09-3.28,4.28,4.28,0,0,0-3.29-1.18,5.37,5.37,0,0,0-2.9.75,2.42,2.42,0,0,0-1.21,2.23,2.21,2.21,0,0,0,.57,1.59,5.08,5.08,0,0,0,1.68,1.08,26.63,26.63,0,0,0,2.73,1l3.72,1.18c1.52.39,2.94.82,4.25,1.3a15.85,15.85,0,0,1,3.47,1.74,7.23,7.23,0,0,1,3.26,6.49,10.7,10.7,0,0,1-1.24,5.34,10.33,10.33,0,0,1-3.33,3.59,14.21,14.21,0,0,1-4.86,2,27.22,27.22,0,0,1-5.8.6q-7.56,0-11.72-3.16T508.46,334.13Z"
     id="path352"
     style="fill:#ffffff" />
  <path
     class="cls-1"
     d="M542.35,319.48v-8h5.32V301.32h10.8v10.12h7.74v8h-7.74V331.6a10.51,10.51,0,0,0,.35,3,4.2,4.2,0,0,0,1,1.75,3.12,3.12,0,0,0,1.56.83,10.64,10.64,0,0,0,2,.18c.46,0,1.05,0,1.76-.05a13.2,13.2,0,0,0,1.87-.19v8.39c-.81.14-1.81.27-3,.38s-2.63.18-4.27.18a31.72,31.72,0,0,1-4-.28,9.28,9.28,0,0,1-3.92-1.45,8.71,8.71,0,0,1-3-3.61,15.66,15.66,0,0,1-1.17-6.68V319.48Z"
     id="path354"
     style="fill:#ffffff" />
  <path
     class="cls-1"
     d="M572.5,300.11a6.58,6.58,0,0,1,2-4.87,6.79,6.79,0,0,1,5-2,7.15,7.15,0,0,1,5,2,6.18,6.18,0,0,1,1.49,2.19,7.25,7.25,0,0,1,.52,2.7,7,7,0,0,1-.52,2.66,6.55,6.55,0,0,1-1.49,2.19,6.92,6.92,0,0,1-5,2,7,7,0,0,1-2.73-.53,7.09,7.09,0,0,1-3.68-3.68A6.62,6.62,0,0,1,572.5,300.11Zm1.55,45.41V311.44h10.81v34.08Z"
     id="path356"
     style="fill:#ffffff" />
  <path
     class="cls-1"
     d="M592,319.48v-8h5.31V301.32H608.1v10.12h7.74v8H608.1V331.6a10.51,10.51,0,0,0,.35,3,4.2,4.2,0,0,0,1,1.75,3.12,3.12,0,0,0,1.56.83,10.64,10.64,0,0,0,2,.18c.46,0,1.05,0,1.76-.05a13.2,13.2,0,0,0,1.87-.19v8.39c-.81.14-1.81.27-3,.38s-2.63.18-4.27.18a31.72,31.72,0,0,1-4-.28,9.28,9.28,0,0,1-3.92-1.45,8.71,8.71,0,0,1-3-3.61,15.65,15.65,0,0,1-1.18-6.68V319.48Z"
     id="path358"
     style="fill:#ffffff" />
  <path
     class="cls-1"
     d="M622,331.68V311.44H632.8v17.47a11.88,11.88,0,0,0,1.31,6q1.3,2.29,4.68,2.3a5.63,5.63,0,0,0,5-2.33,11,11,0,0,0,1.6-6.31V311.44h10.81v34.08H645.37v-4.87a9.88,9.88,0,0,1-4.31,4.22,14.7,14.7,0,0,1-6.92,1.52,13.22,13.22,0,0,1-5.81-1.11,11,11,0,0,1-3.7-2.79,10.12,10.12,0,0,1-2.14-4.56A33.83,33.83,0,0,1,622,331.68Z"
     id="path360"
     style="fill:#ffffff" />
  <path
     class="cls-1"
     d="M662,319.48v-8h5.32V301.32h10.81v10.12h7.74v8h-7.74V331.6a10.51,10.51,0,0,0,.35,3,4.1,4.1,0,0,0,1,1.75,3.08,3.08,0,0,0,1.56.83,10.57,10.57,0,0,0,2,.18c.46,0,1.05,0,1.76-.05a13.36,13.36,0,0,0,1.87-.19v8.39c-.81.14-1.82.27-3,.38s-2.63.18-4.26.18a31.88,31.88,0,0,1-4-.28,9.24,9.24,0,0,1-3.91-1.45,8.64,8.64,0,0,1-3-3.61,15.5,15.5,0,0,1-1.18-6.68V319.48Z"
     id="path362"
     style="fill:#ffffff" />
  <path
     class="cls-1"
     d="M689.75,328.46a20.12,20.12,0,0,1,1.23-7.11,16.5,16.5,0,0,1,8.58-9.4,14.84,14.84,0,0,1,6.38-1.38,12.93,12.93,0,0,1,6.63,1.63,11.06,11.06,0,0,1,4.22,4.11v-4.87H727.6v34.08H716.79v-4.8a10.48,10.48,0,0,1-4.1,4,13,13,0,0,1-6.75,1.66,14.84,14.84,0,0,1-6.36-1.38,16.37,16.37,0,0,1-5.17-3.77,17,17,0,0,1-3.43-5.66A20.13,20.13,0,0,1,689.75,328.46Zm10.81,0a9.53,9.53,0,0,0,.6,3.37,8.65,8.65,0,0,0,1.66,2.76,7.9,7.9,0,0,0,2.53,1.87,7.61,7.61,0,0,0,3.31.71,7.73,7.73,0,0,0,3.33-.71,8.1,8.1,0,0,0,2.55-1.87,8.46,8.46,0,0,0,1.65-2.74,9.52,9.52,0,0,0,.6-3.39,9.2,9.2,0,0,0-2.25-6.07,7.57,7.57,0,0,0-2.54-1.9,8.25,8.25,0,0,0-6.65,0,7.43,7.43,0,0,0-2.53,1.9,9.36,9.36,0,0,0-1.66,2.76A9.09,9.09,0,0,0,700.56,328.46Z"
     id="path364"
     style="fill:#ffffff" />
  <path
     class="cls-1"
     d="M734.51,334.13h10.6a3.63,3.63,0,0,0,1.52,3.28,8.21,8.21,0,0,0,7.13.35,2.24,2.24,0,0,0,1.27-2.15,2,2,0,0,0-.54-1.45,4.62,4.62,0,0,0-1.64-1c-.74-.29-1.68-.62-2.82-1l-4.16-1.3c-1.45-.46-2.81-.94-4.09-1.43a13.76,13.76,0,0,1-3.37-1.85,7.9,7.9,0,0,1-2.26-2.69,8.61,8.61,0,0,1-.81-3.94,9.63,9.63,0,0,1,1.07-4.66,8.92,8.92,0,0,1,3-3.25,14.38,14.38,0,0,1,4.62-1.92,26.13,26.13,0,0,1,5.94-.64,23,23,0,0,1,6.84.9,13.46,13.46,0,0,1,4.7,2.45,9.68,9.68,0,0,1,2.71,3.67,11.53,11.53,0,0,1,.88,4.52H754.44a4.62,4.62,0,0,0-1.09-3.28,4.28,4.28,0,0,0-3.3-1.18,5.4,5.4,0,0,0-2.9.75,2.42,2.42,0,0,0-1.21,2.23,2.21,2.21,0,0,0,.57,1.59,5.08,5.08,0,0,0,1.68,1.08,28.52,28.52,0,0,0,2.73,1l3.73,1.18c1.52.39,2.93.82,4.25,1.3a16.07,16.07,0,0,1,3.47,1.74,7.79,7.79,0,0,1,2.38,2.57,7.92,7.92,0,0,1,.88,3.92,10.7,10.7,0,0,1-1.25,5.34,10.15,10.15,0,0,1-3.33,3.59,14.16,14.16,0,0,1-4.85,2,27.29,27.29,0,0,1-5.8.6q-7.56,0-11.73-3.16T734.51,334.13Z"
     id="path366"
     style="fill:#ffffff" />
  <g
     id="_Group_"
     data-name="&lt;Group&gt;"
     style="fill:#ffffff">
    <g
       id="_Group_2"
       data-name="&lt;Group&gt;"
       style="fill:#ffffff">
      <path
         class="cls-2"
         d="M64.09,239.84,78.49,237l-.56-2.77-14.4,2.89a4.74,4.74,0,1,1-1.86-9.29l14.4-2.89-.56-2.77L61.11,225a7.56,7.56,0,0,0,3,14.83Z"
         id="path368"
         style="fill:#ffffff" />
    </g>
    <g
       id="_Group_3"
       data-name="&lt;Group&gt;"
       style="fill:#ffffff">
      <polygon
         class="cls-2"
         points="84.63 255.31 68.85 261.07 81.28 246.13 80.2 243.18 59.78 250.63 60.75 253.29 76.53 247.53 64.11 262.48 65.18 265.42 85.6 257.97 84.63 255.31"
         id="polygon371"
         style="fill:#ffffff" />
    </g>
    <g
       id="_Group_4"
       data-name="&lt;Group&gt;"
       style="fill:#ffffff">
      <rect
         class="cls-3"
         x="68.75"
         y="268.87"
         width="21.74"
         height="2.92"
         transform="translate(-112.92 64.54) rotate(-26.68)"
         id="rect374"
         style="fill:#ffffff" />
    </g>
    <g
       id="_Group_5"
       data-name="&lt;Group&gt;"
       style="fill:#ffffff">
      <polygon
         class="cls-2"
         points="99.59 282.82 82.19 287.35 93.49 273.35 91.87 270.84 77.72 289.01 78.83 290.73 101.21 285.33 99.59 282.82"
         id="polygon377"
         style="fill:#ffffff" />
    </g>
    <g
       id="_Group_6"
       data-name="&lt;Group&gt;"
       style="fill:#ffffff">
      <polygon
         class="cls-2"
         points="96.53 298.75 102.69 305.82 104.61 304.15 98.46 297.08 103.82 292.41 109.97 299.48 111.89 297.81 103.89 288.61 87.49 302.87 95.5 312.07 97.42 310.4 91.27 303.33 96.53 298.75"
         id="polygon380"
         style="fill:#ffffff" />
    </g>
    <g
       id="_Group_7"
       data-name="&lt;Group&gt;"
       style="fill:#ffffff">
      <path
         class="cls-2"
         d="M122,307l-5.83-4.93-14,16.6,2.16,1.83,4.47-5.29,3.41,2.88L111,326.21l2.47,2.08,1.28-8.59A7.41,7.41,0,0,0,122,307Zm-1.23,8.63a4.59,4.59,0,0,1-6.66.72l-3.68-3.11,6.25-7.4,3.68,3.11A4.61,4.61,0,0,1,120.76,315.67Z"
         id="path383"
         style="fill:#ffffff" />
    </g>
    <g
       id="_Group_8"
       data-name="&lt;Group&gt;"
       style="fill:#ffffff">
      <path
         class="cls-2"
         d="M137.62,317.51c-3.15-1.87-6.83-1.56-8.83,1.8-2.1,3.55.21,6.3,2.83,9.23,1.4,1.54,2.86,3.28,1.56,5.47-1.19,2-3.45,2.28-5.61,1a4.58,4.58,0,0,1-1.73-6.69l-2.43-1.45c-2.36,4-1,8.05,2.75,10.27,3.47,2.06,7.47,1.65,9.55-1.85,2.2-3.71-.32-6.65-2.8-9.46-1.47-1.66-2.75-3.29-1.59-5.24,1.06-1.78,3.08-2,5-.87,2.16,1.28,2.69,3.32,1.41,5.6l2.43,1.44C142.21,323.3,141.12,319.59,137.62,317.51Z"
         id="path386"
         style="fill:#ffffff" />
    </g>
    <g
       id="_Group_9"
       data-name="&lt;Group&gt;"
       style="fill:#ffffff">
      <rect
         class="cls-3"
         x="135.31"
         y="333.13"
         width="21.73"
         height="2.92"
         transform="translate(-218.94 337.18) rotate(-66.81)"
         id="rect389"
         style="fill:#ffffff" />
    </g>
    <g
       id="_Group_10"
       data-name="&lt;Group&gt;"
       style="fill:#ffffff">
      <polygon
         class="cls-2"
         points="169.44 330.96 155.91 327.01 155.2 329.45 160.59 331.03 155.21 349.44 157.92 350.24 163.31 331.82 168.73 333.41 169.44 330.96"
         id="polygon392"
         style="fill:#ffffff" />
    </g>
    <g
       id="_Group_11"
       data-name="&lt;Group&gt;"
       style="fill:#ffffff">
      <path
         class="cls-2"
         d="M177.12,332.14l-10.34,20.53,2.95.4,1.56-3.14,8.73,1.19.69,3.44,3,.4-4.52-22.54Zm-4.63,15.35,5-10.62,2,11.58Z"
         id="path395"
         style="fill:#ffffff" />
    </g>
    <g
       id="_Group_12"
       data-name="&lt;Group&gt;"
       style="fill:#ffffff">
      <path
         class="cls-2"
         d="M197.21,342.22c-2.14-.6-4.09-1.27-4.18-3.53-.08-2.08,1.48-3.39,3.75-3.47,2.51-.1,4.06,1.33,4.22,3.94l2.83-.11c-.19-4-3.11-6.53-7.18-6.38-3.66.15-6.59,2.4-6.44,6.31.16,4.13,3.59,5.18,7.39,6.21,2,.55,4.18,1.21,4.28,3.75.09,2.33-1.66,3.8-4.17,3.89a4.58,4.58,0,0,1-5.09-4.68l-2.83.11c.18,4.62,3.55,7.29,7.89,7.12,4-.15,7.17-2.67,7-6.73C204.53,344.33,200.82,343.23,197.21,342.22Z"
         id="path398"
         style="fill:#ffffff" />
    </g>
    <g
       id="_Group_13"
       data-name="&lt;Group&gt;"
       style="fill:#ffffff">
      <polygon
         class="cls-2"
         points="230.73 344.29 220.08 329.8 217.24 330.72 231.19 349.04 233.14 348.41 233.63 325.4 230.8 326.32 230.73 344.29"
         id="polygon401"
         style="fill:#ffffff" />
    </g>
    <g
       id="_Group_14"
       data-name="&lt;Group&gt;"
       style="fill:#ffffff">
      <rect
         class="cls-3"
         x="242.01"
         y="321.67"
         width="2.92"
         height="21.73"
         transform="translate(-119.52 137.35) rotate(-25.52)"
         id="rect404"
         style="fill:#ffffff" />
    </g>
    <g
       id="_Group_15"
       data-name="&lt;Group&gt;"
       style="fill:#ffffff">
      <polygon
         class="cls-2"
         points="258.74 333.73 248.6 317.43 246.21 318.92 257.68 337.38 266.12 332.13 264.77 329.97 258.74 333.73"
         id="polygon407"
         style="fill:#ffffff" />
    </g>
    <g
       id="_Group_16"
       data-name="&lt;Group&gt;"
       style="fill:#ffffff">
      <polygon
         class="cls-2"
         points="268.16 302.74 279.09 315.48 260.73 309.1 258.36 311.14 272.5 327.64 274.65 325.8 263.71 313.05 282.07 319.43 284.45 317.39 270.3 300.9 268.16 302.74"
         id="polygon410"
         style="fill:#ffffff" />
    </g>
    <g
       id="_Group_17"
       data-name="&lt;Group&gt;"
       style="fill:#ffffff">
      <polygon
         class="cls-2"
         points="291.28 306.32 285.93 301.82 291.97 294.65 290.02 293.01 283.99 300.19 278.54 295.61 284.58 288.43 282.63 286.79 274.77 296.13 291.41 310.13 299.27 300.79 297.32 299.15 291.28 306.32"
         id="polygon413"
         style="fill:#ffffff" />
    </g>
    <g
       id="_Group_18"
       data-name="&lt;Group&gt;"
       style="fill:#ffffff">
      <polygon
         class="cls-2"
         points="292.98 270.92 307.32 279.67 287.89 279.27 286.25 281.95 304.81 293.27 306.29 290.86 291.94 282.11 311.38 282.51 313.01 279.83 294.45 268.51 292.98 270.92"
         id="polygon416"
         style="fill:#ffffff" />
    </g>
    <g
       id="_Group_19"
       data-name="&lt;Group&gt;"
       style="fill:#ffffff">
      <path
         class="cls-2"
         d="M317.22,256c-4-1.67-6.54,1.23-9,4.08-1.45,1.68-2.88,3.17-5,2.3-1.91-.81-2.44-2.78-1.56-4.87,1-2.32,2.92-3.12,5.35-2.16l1.09-2.61c-3.7-1.52-7.23.07-8.8,3.82-1.42,3.37-.6,7,3,8.49,3.81,1.6,6.21-1.07,8.75-4.07,1.34-1.6,2.85-3.28,5.2-2.3,2.15.9,2.74,3.1,1.77,5.42a4.59,4.59,0,0,1-6.39,2.64l-1.1,2.6c4.27,1.79,8.11-.13,9.79-4.14C321.93,261.45,321,257.54,317.22,256Z"
         id="path419"
         style="fill:#ffffff" />
    </g>
    <g
       id="_Group_20"
       data-name="&lt;Group&gt;"
       style="fill:#ffffff">
      <rect
         class="cls-3"
         x="313.77"
         y="234.96"
         width="2.92"
         height="21.73"
         transform="translate(-10.81 477.12) rotate(-73.3)"
         id="rect422"
         style="fill:#ffffff" />
    </g>
    <g
       id="_Group_21"
       data-name="&lt;Group&gt;"
       style="fill:#ffffff">
      <path
         class="cls-2"
         d="M325.24,224c-4.24-.81-6.15,2.56-7.95,5.85-1.07,1.94-2.16,3.69-4.39,3.26-2-.39-3-2.21-2.53-4.43.47-2.47,2.21-3.66,4.79-3.23l.53-2.77c-3.94-.72-7.06,1.55-7.83,5.55-.69,3.6.85,7,4.69,7.69,4.06.78,5.85-2.32,7.72-5.79,1-1.83,2.12-3.8,4.62-3.32,2.28.44,3.32,2.47,2.84,4.94a4.58,4.58,0,0,1-5.71,3.9l-.53,2.78c4.55.87,7.9-1.81,8.72-6.08C331,228.39,329.23,224.77,325.24,224Z"
         id="path425"
         style="fill:#ffffff" />
    </g>
    <g
       id="_Group_22"
       data-name="&lt;Group&gt;"
       style="fill:#ffffff">
      <path
         class="cls-2"
         d="M168.67,258.65a1,1,0,1,0,.63-1.89A1,1,0,1,0,168.67,258.65Z"
         id="path428"
         style="fill:#ffffff" />
    </g>
    <g
       id="_Group_23"
       data-name="&lt;Group&gt;"
       style="fill:#ffffff">
      <path
         class="cls-2"
         d="M272,216.2V130.05L112,130c0,34.75-.45,69.95-.24,104.54h94.55c1.14-6.23,9.14-13.6,5.32-20.62l-4.59-5.4a21.91,21.91,0,0,0,3.78-1.49l5.05,5a16.19,16.19,0,0,0,1.78,4.94,44.31,44.31,0,0,0-4.76,12.73c-1.64.39-2.39,1.74-1.48,4.85h5.26c.24-3.88,2.47-6.18,3.85-9.61,1.72-4.3,1.89-8.72.11-11-3.84-3-6.94-6.25-10.95-9.69-.46-.12-.92-.52-1.38-.4s.69,1.66,1.26,1.89c-7.34,3.1-14.57,2.18-22.25,1.26a12,12,0,0,1,.57-4.93,10.78,10.78,0,0,1,2.18,3.84c1-.91,2.35-3.5,3.1-4.64l4.64,4.76c.23-3.1.92-8.66,2-10.84a75.53,75.53,0,0,0,10.09,1.66c.46,1.89-.34,5,1.38,5s.86-3.79.75-5a41.23,41.23,0,0,0,5.39.17c.4,1.78.11,4.71,1.6,4.65s.69-3.39.64-4.82a27.38,27.38,0,0,0,4.87-.8c-2.87,5.85-1.72,13.65,2.35,17.61l-4.64,16.06c-1.61.51-1.89,2-.87,4.79h50.54C271.91,229.44,272,222.17,272,216.2ZM184,140.89l.8-4.82L186.1,141l24.55-.8,6.88,1.89-6.76,1.72-24.5.12-.68,5-1.38-4.65h-.86a3.94,3.94,0,0,0-.29-3.27ZM171,192.34a19.16,19.16,0,0,1,9.18-1.55,12.82,12.82,0,0,1,.34,1.89,37.1,37.1,0,0,0-10.5,2A4.91,4.91,0,0,1,171,192.34Zm-.57-8.26c3.32-2.7,9.34-6.37,14.39-7.28.4,0,.52.28.92.28a33.52,33.52,0,0,0-14.91,12C170.56,187.46,170.56,185.69,170.39,184.08Zm1.77,6c2.87-4.93,7.92-8.94,13.83-11.41-.23,1.89.57,2.75,1.77,4.07l-4.41,4.42-2.87,2.12A36,36,0,0,0,172.16,190Zm20.48-30.57a9.8,9.8,0,0,0,.63-11,12,12,0,0,1,6.65.23,12.26,12.26,0,0,1-1.83,8.83l1.26,1.9c-1.2.23-3.27.51-4.87.74a24.24,24.24,0,0,0,.4,5.11,23.29,23.29,0,0,1-4.42.8A11.52,11.52,0,0,1,192.64,159.47Zm-.57-1.83c-1.67-1.38-2.24-4.65-2-6.71.06-.81.8-2,1.72-1.9C193.44,149.84,193.79,156.55,192.07,157.64Zm3.15,9.06a46,46,0,0,0,1.61,6.37c-1.21.4-3.67,1.37-5.39,1.78a26.39,26.39,0,0,1-.86-7.17C192.3,167.39,193.62,167.1,195.22,166.7Zm2.3,7.92a19.37,19.37,0,0,0,1.14,2.18,54.69,54.69,0,0,0-9.69,4.93c-1-1-2.35-3-.8-3.73Zm-14,14.34,4.47,3.38a1.23,1.23,0,0,1-.05.63c-1.67-.11-4.3-.34-5.91-.46a20,20,0,0,1-.29-2.29A10.8,10.8,0,0,1,183.52,189Zm1.26-1a35.35,35.35,0,0,1,14.34-9.75,28.38,28.38,0,0,0,3.21,4.25c-.51,1.09-1.89,2.06-4.64,2.81-3.33,1.72-7.4,5.45-8.72,6.13Zm11.42-26.55,12.9-2c1.78,4.7,2.64,19.55-2.58,24C200.79,180.47,196.43,169.17,196.2,161.37Zm-16-20.48a2.5,2.5,0,0,1,1.84,2.58,3.49,3.49,0,0,1-1.09,2.12c.17,2.13.63,7.86.86,11.24l8.66,3.5a11,11,0,0,0-1.26,4.25L178,159.65c0-4.77.17-9.53.34-14.17A2.52,2.52,0,0,1,180.19,140.89Zm-6,1.55a1,1,0,0,1,1.38-.17,1.29,1.29,0,0,1,.17,1.49,1,1,0,0,1-1.44.05C173.83,143.47,173.94,142.9,174.23,142.44Zm4,27a22.13,22.13,0,0,1,5.22,6.13,15.28,15.28,0,0,0-2.3.63c-1.66-2.75-5.05-6.76-8.54-7.74l.57,1.44a15.66,15.66,0,0,1,6.25,6.82,34.09,34.09,0,0,0-9.69,5.91c.28-1.67-.4-3.39.34-5.39,1.26-3.22,1.78-6.66-1.95-8.95a9,9,0,0,0-2.75-.69c-.12-1-.12-2.18-.29-3.15C169.07,164.23,174.92,166.53,178.19,169.4Zm-9.81,10.26-1.78-.11-1.09-10.15c2,.17,3.44,1.14,3.9,2.46C170.33,173.58,168.15,177.71,168.38,179.66Zm-3.1,5.57c-2.24,0-3.21-1.49-3.56-3.27,1.55-.4,4.82-1.09,6.6-.75C168.66,183.56,167.52,185.23,165.28,185.23Zm0-5.62c-.86.17-2.58.45-3.79.74l-.22-.23-2.3-9.46c1-.92,3.62-1.49,5-1.49Zm-6.42-16.87a4.07,4.07,0,0,1,2.81,1.95s.86-.11,1.83-.17a29.36,29.36,0,0,1,.35,3c-1.44.18-4.13.69-5.28,1.67l-.86-1.78c-1.2-1.95-.57-1.55-1.55-2.64.86-.06,2.18.69,3.27,1.38C159.2,164.87,159,163.83,158.86,162.74ZM145,207.08c.58-2.12.81-4.59,1.67-6.37a58.56,58.56,0,0,1,11.76-6.82,52.36,52.36,0,0,1,10,.51,22,22,0,0,0-.51,3.16c-3-.23-6-.46-9.18-.46a30,30,0,0,0-9.46,5.16c-.46,1.72.23,3,.51,4.71-1.15.11-3.33.05-4.7.11Zm7.63,2.64c-.63,1-.23,2.52,0,3.67a35,35,0,0,1-3.67.4,11,11,0,0,1,1.38-5.28c2.18-2.23,5-4.76,7-6.65a16.54,16.54,0,0,1,2.75-2.52l12.56-.86.06-.41c-.81-.51-2.3-.4-3.21-.4l.17-1.43c3.38-1.55,7.22-2,10.84-2.18-.06,3.1.11,7.11-.4,10.15-4.59.86-13.08-1.83-18.42-1.72Zm33.21-4.93a10.5,10.5,0,0,0,0,3.72c.12,1.21-2.35,1.5-3.84,1.78a36.49,36.49,0,0,0-6.83,2.87c.29-2.29,1.61-3.38,3.16-4.47A10.65,10.65,0,0,0,181,207c1.14-2.92,1.14-8.49,1.2-13,1.26.12,4.47.35,5.91.4C188.57,198.3,186.33,201.46,185.87,204.79ZM199.58,191a24.77,24.77,0,0,0-3,11.41l-3.73-3.72c-.63,1.14-1.49,3-2.35,4.3-.4-.75-1.26-1.95-1.89-2.93a13.71,13.71,0,0,0,.74-7.17,49.78,49.78,0,0,1,8.78-6.19c2.92-1,4.87-2,5.45-3.27.4.4,1.32,1,2,1.55-1.21,2.12-5.51,4.82-9.24,5.62C196.94,191.08,198.43,191.08,199.58,191Zm.86,2.52a15,15,0,0,1,1.32-3.15,15.3,15.3,0,0,0,4.36-3c1.6,1.49,3,5.1,3.27,7.57A41.15,41.15,0,0,1,200.44,193.54Zm11,1.44a26,26,0,0,0-3.78-9.41c1.72-.63,4.18.52,5.56,1.89,2,1.84,3,4.71,3.67,7.58C215.87,195,212.83,195.09,211.45,195Zm27.13,5a6.3,6.3,0,0,1,1.55,3.56,6.52,6.52,0,0,0-3.78-1.26c.23,1.09.91,2,.4,4l-.06.12a12.89,12.89,0,0,0-2.35-2.75c-2.24-2.41-1.43-6.2-.17-9.76,0-1.49-.75-2.92-2.41-2.92-4.3.69-8.09,4.3-12.39,4-1.49-3.1-2.35-8-6.48-9.81a15.59,15.59,0,0,1,11.41,6.77c3.73-3.21,8.2-7.06,13.54-5.57a4.91,4.91,0,0,1,3.38,4.08c.35,3.27-1.66,7.45,1.78,10.32C241.62,201.52,240,199.57,238.58,200Z"
         id="path431"
         style="fill:#ffffff" />
    </g>
    <g
       id="_Group_24"
       data-name="&lt;Group&gt;"
       style="fill:#ffffff">
      <path
         class="cls-2"
         d="M266.69,237.67H111.8a83.31,83.31,0,0,0,19.41,51c31.72,37.68,93.89,37.11,124.24-3,10.46-14.62,16.06-28.43,16.44-48.05h-3c0,10-3.39,23.29-6.88,30.21a5.47,5.47,0,0,1-2.18,1.26c-3.22,1.32-4.94,1.21-8.32,2.3-.69.34-1.61.63-1.78,1.14a29.51,29.51,0,0,0,6.88-.92c-1,.64-1.77,1.27-2.46,1.61a203.13,203.13,0,0,1-24.95,12.39c1.66-5.79.63-15.83-2.18-23.17a61.62,61.62,0,0,0,7.51-1.55c2.47,2.29,3.56,7.68,3.73,10.72,1.15-1.43,1.2-2.4,1.32-4.53a24.38,24.38,0,0,0-3-7.17c2.06-.91,4.93-2.52,7.11-3.32s5.39-1.49,6.65-2.13c-.8-.63-3.09-.17-4.41,0,5.33-3.61,12.39-6.42,18.7-8.37-.29-1.09-3.56,0-4.65,0A22.59,22.59,0,0,0,266.69,237.67ZM164.76,256l-.11,41.24a6.61,6.61,0,0,0-1.49-1.32l.11-41.3c0-1.21.23-2,1-2.07,3.67-.34,8.71-.86,12.9-1.49s9.52-1.09,13.94-1.72c.34-.4.23-.8-.23-1.2l-27.65,3.21c-.74.34-1.43,1-1.43,1.26,0,.69-.12,2.64-.12,3.21,0,13.71-.05,26.62-.17,39.52L160,295c-.23-12.91-.12-27.93-.12-41.87a10,10,0,0,1,.12-2.7c.23-.51,1.6-.51,1.6-.51,9.58-1,19.45-2.36,29.08-3.56.46-.17.4-.75-.17-1.09-9.46,1-20.71,1.89-29.88,3a3.42,3.42,0,0,0-2.18.86,4.73,4.73,0,0,0-.4,2.41c0,14.28.51,29,.17,43.48h-1.32c-.06-14.74-.23-33.33-.23-45.94a2.3,2.3,0,0,1,2.41-2.64c11.87-1,19.21-1.38,28.79-2.58,2.81,0,5.28.28,6.6,2.35,1,1.2.4,3.5-1.44,4.3a12.43,12.43,0,0,1-3.72.86l-22.55,2.58A2.38,2.38,0,0,0,164.76,256Zm23.64-2.76v6l-1.32-.06c-2.3-.4-4-3-4-5.51C184.61,253.48,186.67,253.42,188.4,253.25Zm-22.26,3.9c-.06-1,.17-1.89,1.32-2s3.16-.23,4.93-.35c0,4.13-1.66,6.14-6.25,6.14C166.14,259.73,166.2,258.64,166.14,257.15Zm2.07,44.17a1.85,1.85,0,0,1-1.78-1.26v-5.51a6.7,6.7,0,0,1,4.24,1.38,6.32,6.32,0,0,1,2.18,5A40.24,40.24,0,0,1,168.21,301.32Zm6.19-.46c-.06-2.12-.86-4.93-2.81-6.25a8.16,8.16,0,0,0-5.16-1.38l-.23-30.91c4.59.05,7.86-2.18,7.63-7.69l7.68-.86a6.9,6.9,0,0,0,6.94,7.11l.86,30.34c-5,1.44-6.65,4.19-6.31,8.66Zm10.21-1.32c-.11-3.1.46-5.45,4.59-6.6.17.06.29,5.91.29,6A44.33,44.33,0,0,1,184.61,299.54Zm5.45-46.63c1.32-.23,3.61-.57,4.76-2.12a2.56,2.56,0,0,1-1.15,3.21,9.48,9.48,0,0,1-3.67,1.32C190,254.86,189.83,253,190.06,252.91Zm0,4a8.52,8.52,0,0,0,4.82-1.89v8.89c-.52,1.84-2.53,2.3-4.82,2.93Zm.17,11.42a10,10,0,0,0,4.82-2.07,1.75,1.75,0,0,1,0,2.3,8.9,8.9,0,0,1-4.7,1.72A7,7,0,0,1,190.23,268.34Zm.12,3.5a10.38,10.38,0,0,0,4.3-1.27l.11,7.86-4.18,2.35Zm.51,13.7c.52.12.75-.05,1,.81.18.46,1.21.63,2.13,1a2.35,2.35,0,0,0,1.77.92c0,1,0,3.84,0,5,0,1.43-3.9,2.29-4.81,2.24Zm4.59,11.94a10.52,10.52,0,0,1-4.36,1.37l-.06-1.49a10.46,10.46,0,0,0,5.22-2.12A2,2,0,0,1,195.45,297.48Zm32.06-11.76c-.23,1-.8,1-1.32.69a18.41,18.41,0,0,1-2.81-9.24,13.22,13.22,0,0,1,4.42-2.92A40.42,40.42,0,0,1,227.51,285.72Zm.06-13c-7.63,3.1-12.79,11.93-21.79,13.14a33.77,33.77,0,0,0,4.93-3c.06-.4-.17-.52-.58-.52-3.21,1.72-5.22,3.16-8.26,4l-5.16,1c-.28-.05-.8.12-1.09-.51,1.26-.69,5.22-1.84,7.29-2.87a33.1,33.1,0,0,0,5.62-3.33c.17-.34.06-.86-.69-.69a58.72,58.72,0,0,1-5.28,2.76,51,51,0,0,1-7.74,2.92c-.8.17-1.66-.06-1.84-.46.29-.17-.11-.34.86-.8,1.21-.63,4.54-1.72,6.83-2.93a38,38,0,0,0,5.85-3.49c.17-.46-.06-.75-.69-.52a67.61,67.61,0,0,1-12.9,6,3.59,3.59,0,0,1-2.13.17v-1.21l6.66-3.5a32.27,32.27,0,0,0,5.62-3.49l5.1-4.48v-.74c-3.55.57-7.39,1.66-11.47,0v-.52c1.95-.52,4.08-.8,6-1.32,3.21-.86,6.19-2.35,9.75-3.15,3.9-.58,8.83-.64,13.13-1.09A20.45,20.45,0,0,1,227.57,272.75Z"
         id="path434"
         style="fill:#ffffff" />
    </g>
    <g
       id="_Group_25"
       data-name="&lt;Group&gt;"
       style="fill:#ffffff">
      <path
         class="cls-2"
         d="M169.6,297.24a1.23,1.23,0,0,0-.92,2.29A1.23,1.23,0,0,0,169.6,297.24Z"
         id="path437"
         style="fill:#ffffff" />
    </g>
    <g
       id="_Group_26"
       data-name="&lt;Group&gt;"
       style="fill:#ffffff">
      <path
         class="cls-2"
         d="M184.23,275.23c0-2.23-1.49-2.69-3.44-2.81a4,4,0,0,0-.91-2.92c-2.41-1.15-5.4.17-4.65,3.27-1.32.23-3.79,1.09-3.61,3.32s1.49,2.87,4.07,2.76c.11,1.89,1.32,4,3.21,3.73s2.29-2.41,2.29-4.65C182.69,277.93,184.46,277.13,184.23,275.23ZM179.82,277c.06,1.67.57,3.79-1,4-2.3.23-1.27-2.58-1.9-3.5-1-.4-3.27.63-3.78-1.15.23-2.29,2.23-2.06,3.67-2.35-.17-1.66-1.09-3,1.32-3.61,2,.17,1.2,1.83,1.37,3,1.27.05,3.45-.23,3.5,1.66S181.19,276.44,179.82,277Z"
         id="path440"
         style="fill:#ffffff" />
    </g>
    <g
       id="_Group_27"
       data-name="&lt;Group&gt;"
       style="fill:#ffffff">
      <path
         class="cls-2"
         d="M206.92,177.6c-.23-1.32-.57-2.81-.74-4,1.26-.17,2.06-.23,2.86-.4l-.34-2.12c-1,.29-1.26.23-2.7.63-.28-1.32-.45-2.41-.74-4,1-.12,2-.18,2.87-.29-.06-.63-.12-1.32-.18-2-.68.17-2.23.35-3,.63a23.31,23.31,0,0,1-.51-4.18c-.46.17-1.78.22-2.18.4a28.53,28.53,0,0,1,.86,4.07c-.86.11-1.72.29-3,.4l.29,1.89c1-.17,2.58-.57,3.09-.57.23,1.61.46,2.7.58,4a19.32,19.32,0,0,1-3,.46l.46,2.12a20.09,20.09,0,0,0,2.81-.75,36.17,36.17,0,0,1,.12,4.19A14,14,0,0,0,206.92,177.6Z"
         id="path443"
         style="fill:#ffffff" />
    </g>
    <g
       id="_Group_28"
       data-name="&lt;Group&gt;"
       style="fill:#ffffff">
      <path
         class="cls-2"
         d="M187.75,296a1.09,1.09,0,1,0-1.09,1.89C188.09,298.56,188.89,296.5,187.75,296Z"
         id="path446"
         style="fill:#ffffff" />
    </g>
    <g
       id="_Group_29"
       data-name="&lt;Group&gt;"
       style="fill:#ffffff">
      <path
         class="cls-2"
         d="M163,173.76a1.42,1.42,0,0,0-.28-1.61c-.52-.12-.69-.4-1.21,0a2,2,0,0,0,.12,1.72C162.3,174.21,162.93,174.27,163,173.76Z"
         id="path449"
         style="fill:#ffffff" />
    </g>
    <g
       id="_Group_30"
       data-name="&lt;Group&gt;"
       style="fill:#ffffff">
      <path
         class="cls-2"
         d="M185.87,256.87a1,1,0,0,0,.51-1.83C185.06,254.52,184.72,256.7,185.87,256.87Z"
         id="path452"
         style="fill:#ffffff" />
    </g>
    <g
       id="_Group_31"
       data-name="&lt;Group&gt;"
       style="fill:#ffffff">
      <polygon
         class="cls-2"
         points="75.29 172.79 55.23 161.52 54.71 164.46 70.53 172.98 52.73 175.55 52.21 178.48 74.94 174.81 75.29 172.79"
         id="polygon455"
         style="fill:#ffffff" />
    </g>
    <g
       id="_Group_32"
       data-name="&lt;Group&gt;"
       style="fill:#ffffff">
      <rect
         class="cls-3"
         x="66.51"
         y="145.63"
         width="2.92"
         height="21.74"
         transform="translate(-101.17 178.97) rotate(-74.09)"
         id="rect458"
         style="fill:#ffffff" />
    </g>
    <g
       id="_Group_33"
       data-name="&lt;Group&gt;"
       style="fill:#ffffff">
      <polygon
         class="cls-2"
         points="84.61 141.83 82.23 140.92 79.67 147.55 61.77 140.64 60.75 143.27 81.03 151.1 84.61 141.83"
         id="polygon461"
         style="fill:#ffffff" />
    </g>
    <g
       id="_Group_34"
       data-name="&lt;Group&gt;"
       style="fill:#ffffff">
      <polygon
         class="cls-2"
         points="87.61 135.41 72.83 127.41 92.26 126.81 93.76 124.05 74.64 113.7 73.3 116.19 88.07 124.19 68.64 124.79 67.15 127.55 86.26 137.89 87.61 135.41"
         id="polygon464"
         style="fill:#ffffff" />
    </g>
    <g
       id="_Group_35"
       data-name="&lt;Group&gt;"
       style="fill:#ffffff">
      <rect
         class="cls-3"
         x="88.08"
         y="100.26"
         width="2.92"
         height="21.74"
         transform="matrix(0.58, -0.82, 0.82, 0.58, -52.87, 120.28)"
         id="rect467"
         style="fill:#ffffff" />
    </g>
    <g
       id="_Group_36"
       data-name="&lt;Group&gt;"
       style="fill:#ffffff">
      <path
         class="cls-2"
         d="M103.66,110.26l-1.74-3,5.84-6.6L111,102l2-2.24L91.72,91,90.36,92.5l11.33,20ZM94.53,94.77l10.72,4.79-4.69,5.31Z"
         id="path470"
         style="fill:#ffffff" />
    </g>
    <g
       id="_Group_37"
       data-name="&lt;Group&gt;"
       style="fill:#ffffff">
      <path
         class="cls-2"
         d="M121,93.44a7.35,7.35,0,0,0,1-10.65l-9.43-11.26-2.17,1.81,9.44,11.26a4.74,4.74,0,1,1-7.26,6.08l-9.43-11.25L101,81.24,110.4,92.5A7.33,7.33,0,0,0,121,93.44Z"
         id="path473"
         style="fill:#ffffff" />
    </g>
    <g
       id="_Group_38"
       data-name="&lt;Group&gt;"
       style="fill:#ffffff">
      <path
         class="cls-2"
         d="M131.76,73.41c2-.49,4.25-.94,5.55,1.25,1.19,2,.35,4.12-1.81,5.41a4.59,4.59,0,0,1-6.7-1.69l-2.43,1.44c2.36,4,6.59,4.72,10.33,2.5,3.46-2.06,5-5.77,2.94-9.26-2.2-3.71-6-2.91-9.64-2.07-2.16.49-4.2.83-5.36-1.12-1.06-1.79-.31-3.68,1.64-4.84,2.17-1.28,4.21-.76,5.59,1.45L134.3,65c-2.07-3.43-5.85-4.26-9.34-2.18-3.15,1.87-4.65,5.25-2.65,8.61C124.42,75,127.93,74.31,131.76,73.41Z"
         id="path476"
         style="fill:#ffffff" />
    </g>
    <g
       id="_Group_39"
       data-name="&lt;Group&gt;"
       style="fill:#ffffff">
      <path
         class="cls-2"
         d="M163.4,70.91a7.35,7.35,0,0,0,5.29-9.29l-3.91-14.16-2.73.76L166,62.37a4.74,4.74,0,1,1-9.13,2.52l-3.91-14.15-2.73.75,3.92,14.16A7.32,7.32,0,0,0,163.4,70.91Z"
         id="path479"
         style="fill:#ffffff" />
    </g>
    <g
       id="_Group_40"
       data-name="&lt;Group&gt;"
       style="fill:#ffffff">
      <polygon
         class="cls-2"
         points="178 67.32 176.62 50.59 187.74 66.52 190.87 66.27 189.09 44.61 186.27 44.84 187.65 61.58 176.53 45.64 173.4 45.9 175.18 67.55 178 67.32"
         id="polygon482"
         style="fill:#ffffff" />
    </g>
    <g
       id="_Group_41"
       data-name="&lt;Group&gt;"
       style="fill:#ffffff">
      <rect
         class="cls-3"
         x="188.12"
         y="54.44"
         width="21.74"
         height="2.92"
         transform="translate(131.27 251.18) rotate(-86.57)"
         id="rect485"
         style="fill:#ffffff" />
    </g>
    <g
       id="_Group_42"
       data-name="&lt;Group&gt;"
       style="fill:#ffffff">
      <polygon
         class="cls-2"
         points="213.15 68.69 224.71 48.79 221.78 48.22 213.03 63.92 210.72 46.08 207.79 45.52 211.14 68.3 213.15 68.69"
         id="polygon488"
         style="fill:#ffffff" />
    </g>
    <g
       id="_Group_43"
       data-name="&lt;Group&gt;"
       style="fill:#ffffff">
      <polygon
         class="cls-2"
         points="234.87 75.37 235.75 72.98 226.96 69.73 229.38 63.18 238.18 66.43 239.06 64.04 230.26 60.79 232.73 54.12 241.53 57.37 242.41 54.99 230.97 50.75 223.43 71.14 234.87 75.37"
         id="polygon491"
         style="fill:#ffffff" />
    </g>
    <g
       id="_Group_44"
       data-name="&lt;Group&gt;"
       style="fill:#ffffff">
      <path
         class="cls-2"
         d="M241.85,78.81l3.42-6L249.15,75l.33,8.15,2.81,1.59L252,76.08a7.41,7.41,0,0,0,4.79-13.78l-6.64-3.77L239.39,77.42Zm9.48-16.67,4.18,2.38a4.84,4.84,0,0,1-4.78,8.41l-4.19-2.37Z"
         id="path494"
         style="fill:#ffffff" />
    </g>
    <g
       id="_Group_45"
       data-name="&lt;Group&gt;"
       style="fill:#ffffff">
      <path
         class="cls-2"
         d="M259.38,81.27c-2.9,3.61-2.1,7.83,1.29,10.55,3.15,2.53,7.16,2.68,9.71-.49,2.7-3.37.62-6.63-1.45-9.76-1.22-1.85-2.25-3.64-.84-5.41,1.3-1.62,3.34-1.58,5.11-.16,2,1.57,2.19,3.67.61,5.74l2.2,1.77c2.48-3.14,1.93-7-1.24-9.52-2.86-2.29-6.55-2.5-9,.55-2.58,3.22-.68,6.26,1.51,9.53,1.17,1.73,2.37,3.65.78,5.64-1.46,1.81-3.74,1.78-5.7.2a4.59,4.59,0,0,1-.78-6.87Z"
         id="path497"
         style="fill:#ffffff" />
    </g>
    <g
       id="_Group_46"
       data-name="&lt;Group&gt;"
       style="fill:#ffffff">
      <rect
         class="cls-3"
         x="268.56"
         y="92.03"
         width="21.74"
         height="2.92"
         transform="translate(14.65 222.78) rotate(-44.53)"
         id="rect500"
         style="fill:#ffffff" />
    </g>
    <g
       id="_Group_47"
       data-name="&lt;Group&gt;"
       style="fill:#ffffff">
      <polygon
         class="cls-2"
         points="279.53 109.86 281.3 112.06 296.28 100.08 299.81 104.49 301.79 102.9 292.99 91.89 291 93.48 294.51 97.87 279.53 109.86"
         id="polygon503"
         style="fill:#ffffff" />
    </g>
    <g
       id="_Group_48"
       data-name="&lt;Group&gt;"
       style="fill:#ffffff">
      <polygon
         class="cls-2"
         points="293.43 130.26 295.61 128.94 290.73 120.93 296.7 117.3 301.58 125.31 303.75 123.98 298.88 115.97 304.95 112.28 309.83 120.29 312 118.96 305.66 108.54 287.09 119.84 293.43 130.26"
         id="polygon506"
         style="fill:#ffffff" />
    </g>
    <g
       id="_Group_49"
       data-name="&lt;Group&gt;"
       style="fill:#ffffff">
      <polygon
         class="cls-2"
         points="297.66 138.96 298.82 141.54 316.33 133.69 318.64 138.85 320.96 137.81 315.2 124.94 312.87 125.99 315.17 131.12 297.66 138.96"
         id="polygon509"
         style="fill:#ffffff" />
    </g>
    <g
       id="_Group_50"
       data-name="&lt;Group&gt;"
       style="fill:#ffffff">
      <path
         class="cls-2"
         d="M302.26,149.91l3.51.05,2.67,8.4-2.81,2.1.9,2.84L325,149.55l-.63-2-23-.53Zm18,.1-9.61,6.74L308.49,150Z"
         id="path512"
         style="fill:#ffffff" />
    </g>
    <g
       id="_Group_51"
       data-name="&lt;Group&gt;"
       style="fill:#ffffff">
      <path
         class="cls-2"
         d="M323.15,163.7c-4.06.74-4.61,4.28-5.1,8.19-.25,2.07-.6,4.31-3.1,4.77-2.29.42-4-1.1-4.44-3.58a4.59,4.59,0,0,1,3.91-5.7l-.51-2.78c-4.55.83-6.71,4.54-5.93,8.82.73,4,3.66,6.72,7.66,6,4.25-.77,4.81-4.6,5.29-8.32.3-2.2.68-4.23,2.91-4.64,2.05-.37,3.56,1,4,3.22.45,2.48-.75,4.21-3.3,4.74l.51,2.78c3.93-.75,6-4,5.29-8C329.65,165.57,327,163,323.15,163.7Z"
         id="path515"
         style="fill:#ffffff" />
    </g>
    <g
       id="_Group_52"
       data-name="&lt;Group&gt;"
       style="fill:#ffffff">
      <path
         class="cls-2"
         d="M168.82,113.76V95.66h-2.25c0,2.17-.62,3-3.86,3v1.88h3.67v13.22Z"
         id="path518"
         style="fill:#ffffff" />
    </g>
    <g
       id="_Group_53"
       data-name="&lt;Group&gt;"
       style="fill:#ffffff">
      <polygon
         class="cls-2"
         points="194.11 113.76 196.62 113.76 204.66 95.66 193.43 95.66 193.43 97.78 201.3 97.78 194.11 113.76"
         id="polygon521"
         style="fill:#ffffff" />
    </g>
    <g
       id="_Group_54"
       data-name="&lt;Group&gt;"
       style="fill:#ffffff">
      <path
         class="cls-2"
         d="M214.45,113.76l5.38-8.64a6.84,6.84,0,0,0,1.09-3.64,6.2,6.2,0,1,0-6.16,6.2,1.9,1.9,0,0,0,1.11-.28l-4.13,6.36Zm.29-8.2a4,4,0,1,1,3.82-4A3.84,3.84,0,0,1,214.74,105.56Z"
         id="path524"
         style="fill:#ffffff" />
    </g>
    <g
       id="_Group_55"
       data-name="&lt;Group&gt;"
       style="fill:#ffffff">
      <circle
         class="cls-3"
         cx="151.75"
         cy="105.01"
         r="2.93"
         id="circle527"
         style="fill:#ffffff" />
    </g>
    <g
       id="_Group_56"
       data-name="&lt;Group&gt;"
       style="fill:#ffffff">
      <path
         class="cls-2"
         d="M234.83,105.12a2.94,2.94,0,1,0-2.94,2.94A2.94,2.94,0,0,0,234.83,105.12Z"
         id="path530"
         style="fill:#ffffff" />
    </g>
    <g
       id="_Group_57"
       data-name="&lt;Group&gt;"
       style="fill:#ffffff">
      <circle
         class="cls-3"
         cx="64.05"
         cy="200.49"
         r="2.93"
         id="circle533"
         style="fill:#ffffff" />
    </g>
    <g
       id="_Group_58"
       data-name="&lt;Group&gt;"
       style="fill:#ffffff">
      <path
         class="cls-2"
         d="M319.29,198.31a2.94,2.94,0,1,0,4.14.27A2.92,2.92,0,0,0,319.29,198.31Z"
         id="path536"
         style="fill:#ffffff" />
    </g>
    <path
       class="cls-3"
       d="M183.46,101.37a5,5,0,0,0-4.19,1.84v-5.5H188V95.57H177.09v10h2.23a3.65,3.65,0,0,1,3.82-2.28c2.24,0,3.63,1.57,3.63,4.1s-1.5,4.21-3.94,4.21c-1.87,0-3.25-.92-3.55-2.43h-2.19c.38,2.7,2.47,4.56,5.71,4.56a6.08,6.08,0,0,0,6.29-6.42C189.09,103.71,186.9,101.37,183.46,101.37Z"
       id="path539"
       style="fill:#ffffff" />
  </g>
  <g
     id="_Group_59"
     data-name="&lt;Group&gt;"
     style="fill:#ffffff">
    <rect
       class="cls-1"
       x="384.33"
       y="45.46"
       width="3.93"
       height="309.07"
       id="rect542"
       style="fill:#ffffff" />
  </g>
</svg>
