<?xml version="1.0" encoding="UTF-8" standalone="no"?>
<svg xmlns:dc="http://purl.org/dc/elements/1.1/" xmlns:cc="http://creativecommons.org/ns#" xmlns:rdf="http://www.w3.org/1999/02/22-rdf-syntax-ns#" xmlns:svg="http://www.w3.org/2000/svg" xmlns="http://www.w3.org/2000/svg" xmlns:sodipodi="http://sodipodi.sourceforge.net/DTD/sodipodi-0.dtd" xmlns:inkscape="http://www.inkscape.org/namespaces/inkscape" id="Layer_1" data-name="Layer 1" viewBox="0 0 900 400" version="1.1" sodipodi:docname="logo_ZH.svg" inkscape:version="0.92.4 (5da689c313, 2019-01-14)">
  <metadata id="metadata1480">
    <rdf:RDF>
      <cc:Work rdf:about="">
        <dc:format>image/svg+xml</dc:format>
        <dc:type rdf:resource="http://purl.org/dc/dcmitype/StillImage"/>
        <dc:title>VU KI logo</dc:title>
      </cc:Work>
    </rdf:RDF>
  </metadata>
  <sodipodi:namedview pagecolor="#ffffff" bordercolor="#666666" borderopacity="1" objecttolerance="10" gridtolerance="10" guidetolerance="10" inkscape:pageopacity="0" inkscape:pageshadow="2" inkscape:window-width="2560" inkscape:window-height="1377" id="namedview1478" showgrid="false" inkscape:zoom="0.31555556" inkscape:cx="117.25352" inkscape:cy="200" inkscape:window-x="-8" inkscape:window-y="-8" inkscape:window-maximized="1" inkscape:current-layer="Layer_1"/>
  <defs id="defs1276">
    <style id="style1274">.cls-1{fill:#3c3c3b;}.cls-2,.cls-3{fill:#7b003d;}.cls-2{fill-rule:evenodd;}</style>
  </defs>
  <title id="title1278">VU KI logo</title>
  <path class="cls-1" d="M451.86,149.77a49.14,49.14,0,0,0,3-5.87L461.9,147c-.56.77-.71,1.06-1.91,3a145,145,0,0,1-11.81,16.12c1.56-.21,7-1,13.51-1.91l-.64,6.86c-5.44.92-11.74,1.84-18.67,2.62-2.26.28-2.47.28-4,.49L436.79,167a7.93,7.93,0,0,0,4.18-2.19,77.21,77.21,0,0,0,6.79-8.7c-.64.07-.64.07-1.7.14-2.05.07-6.22.43-8.2.64l-1.28-7a6,6,0,0,0,3.75-2.55A102.14,102.14,0,0,0,448,129.19l7.57,2.69c-.43.71-.43.71-5.73,11.88-.71,1.42-2.05,3.82-3.54,6.23ZM463.18,186c-3.68,1-6.87,1.63-19,3.89a25.87,25.87,0,0,0-5.16,1.35l-2.05-8.49c6.15-.35,15.63-1.91,26.31-4.31ZM486,139.8c-3.4-6.15-3.4-6.15-4.6-7.71l6.58-3.25a106.51,106.51,0,0,1,6.08,11h.28a50.1,50.1,0,0,0,7.15-.42v7.56a59.87,59.87,0,0,0-7.15-.28h-4.81v7.57h4.67a28.59,28.59,0,0,0,5.8-.35v7a37.58,37.58,0,0,0-5.8-.29h-4.67v7.71h4.67A29.46,29.46,0,0,0,500,168v7a36,36,0,0,0-5.87-.28h-4.6v8.41h5.73a40.6,40.6,0,0,0,6.94-.35v7.5a46.73,46.73,0,0,0-7.08-.36H473.43v3.61h-7.78a57.06,57.06,0,0,0,.42-7.5V156.63c-.63.85-2.4,3.05-3.39,4.18a17,17,0,0,0-5-6.23,56,56,0,0,0,10.82-15.77,43.81,43.81,0,0,0,4-10.68l7.71,2c-.21.5-.43.92-1.91,4.53-.28.71-1.06,2.47-2.33,5.16Zm-3.68,14.43v-7.57h-8.91v7.57Zm-8.91,14.07h8.91v-7.71h-8.91Zm0,14.78h8.91v-8.41h-8.91Z" id="path1280" style="fill:#ffffff"/>
  <path class="cls-1" d="M561.77,138.53a33.5,33.5,0,0,0,5.38-.28l4.88,4.81c-.57,1.06-.57,1.06-1.84,3.18a60.46,60.46,0,0,1-8.06,11,28.9,28.9,0,0,0-5.73-5.09,23.87,23.87,0,0,0,4.74-6.3h-16v39.26c0,6.08-2.26,7.49-11.81,7.49-2.26,0-3.68-.07-6.65-.28a27.24,27.24,0,0,0-2-8.35,61.69,61.69,0,0,0,10.12.78c2,0,2.4-.35,2.4-1.77V145.81H524.85a76,76,0,0,1-11,15.07,23.39,23.39,0,0,0-6.29-5.8c5.65-4.88,10.11-11.11,13.93-19.38a27.09,27.09,0,0,0,2.55-7.78l8.55,2.26c-.14.29-.28.5-.35.64a16.84,16.84,0,0,0-1.2,2.62c-.5,1.27-.71,1.62-2.34,5.09Zm-29.63,18.88c-3.18,8.28-4.6,11.46-7.22,15.92a59.65,59.65,0,0,1-9.19,12.37c-2.9-3.61-3.47-4.17-5.94-5.94,7.43-6.79,11.88-14.14,15.06-24.68Zm24.26-2.33a190.92,190.92,0,0,1,14.85,25.67l-7.14,4.95c-4.46-11.1-7.43-16.69-14.29-27.09Z" id="path1282" style="fill:#ffffff"/>
  <path class="cls-1" d="M578.4,167c2.05-.71,2.62-.92,3.53-1.77,2.91-3.11,4.25-4.74,6.87-8-3.4.21-7.43.57-9.83.78l-1.28-7.36c1.56-.49,1.91-.7,3.68-3a66.77,66.77,0,0,0,4.31-8.56A75.14,75.14,0,0,0,589.43,129l8.06,3.18a77.4,77.4,0,0,0-4.1,8.07c-.92,1.91-5.16,9.54-5.8,10.46,2.76-.07,4.67-.14,5.8-.21a58.27,58.27,0,0,0,3.47-6.43l7.07,3.39A66.58,66.58,0,0,1,596.29,159a78.56,78.56,0,0,1-6.29,7.35c1.55-.21,3-.42,4.17-.56,2.55-.36,3.11-.43,8.91-1.35l-.63,7.15c-5.52,1-5.52,1-13.65,2.05-3.82.49-4.18.49-6.3.78l-2.47.28Zm22.49,19.17c-2.83.7-5,1.34-6.37,1.69-5.16,1.42-5.16,1.42-11.24,2.9-.92.22-2.19.64-2.76.85l-2-8.49a24.87,24.87,0,0,0,6.08-.7,170.28,170.28,0,0,0,18-4.39l-.07,6.37a.89.89,0,0,1,.42.07c1,.07,2.55.21,3.4.21h2.82l2.48-21.92a49.41,49.41,0,0,0-6.93.28v-7.71a61.45,61.45,0,0,0,7.57.42h.14l2-17.75h-2.62a78,78,0,0,0-8,.36v-7.71a71.82,71.82,0,0,0,8.84.42h21.08c3.46,0,4.73-.07,7.14-.21-.28,2.33-.57,5.87-.85,10.18l-2.83,43.64a40.32,40.32,0,0,0,6.58-.35v7.85a70.41,70.41,0,0,0-8.21-.43H607.75a39.47,39.47,0,0,0-6.86.43Zm28.78-1.49,1.42-21.92h-12l-2.48,21.92Zm1.91-28.93L632.72,138H622l-2.06,17.75Z" id="path1284" style="fill:#ffffff"/>
  <path class="cls-1" d="M665.12,180.54c-3.61,5.94-5.52,8.2-10.9,13a26.15,26.15,0,0,0-5.37-5.51,31.43,31.43,0,0,0,10.25-11.11ZM672.05,136v-1.2a43.21,43.21,0,0,0-.29-6h7.64a35.88,35.88,0,0,0-.35,6V136a32.64,32.64,0,0,0,4.67-.35v7.28a43.81,43.81,0,0,0-4.67-.21v27a20,20,0,0,0,4.1-.36v7.29a59.19,59.19,0,0,0-5.94-.21H654.86a35,35,0,0,0-5.52.28v-7.36a24.8,24.8,0,0,0,5.38.36h.49v-27a33.25,33.25,0,0,0-5.44.28v-7.35a26.7,26.7,0,0,0,5.44.35v-1.2a36.39,36.39,0,0,0-.35-6h7.71a36.39,36.39,0,0,0-.35,6V136Zm-9.83,11.39h9.83V142.7h-9.83Zm0,11h9.83v-4.74h-9.83Zm0,11.32h9.83v-5.09h-9.83ZM674.45,189A51.13,51.13,0,0,0,668.3,181l5.51-4.1a35.75,35.75,0,0,1,6.3,7.71Zm19.17-31.19a134.43,134.43,0,0,1-1.84,19A44.5,44.5,0,0,1,687,189.73a26.18,26.18,0,0,1-3.25,4.74,22.79,22.79,0,0,0-6.23-5.66c4.17-4.31,5.8-7.63,7.22-14.49,1.2-6.09,1.62-13.65,1.62-29.5a85.68,85.68,0,0,0-.35-9.69c7.57,0,19.16-2.9,23.34-5.87l4.95,6.72a69.1,69.1,0,0,1-20.58,5.09v9.48h14.43a38.71,38.71,0,0,0,6.57-.35v7.92a44.55,44.55,0,0,0-5.94-.28h-.63v28a47.83,47.83,0,0,0,.49,7.92h-8.35a46.31,46.31,0,0,0,.43-7.92v-28Z" id="path1286" style="fill:#ffffff"/>
  <path class="cls-1" d="M756.36,153a48.88,48.88,0,0,0,10.18,18.53c5.23,5.94,11.1,10,19.52,13.43a29.31,29.31,0,0,0-5.16,8.14c-8.28-4.25-13.86-8.56-19.1-14.71a54.55,54.55,0,0,1-9-15.35A42,42,0,0,1,741.22,182a52.41,52.41,0,0,1-16.9,11.11,27.82,27.82,0,0,0-5-7.43,51.09,51.09,0,0,0,11.46-6C740.3,172.9,745,165,746.74,153H730.05a54.22,54.22,0,0,0-8.84.49v-9a56.45,56.45,0,0,0,8.91.49h17.33c.14-4.1.21-4.45.21-7.63a43.24,43.24,0,0,0-.5-7.78h9.34a51.52,51.52,0,0,0-.5,8.27c0,3-.07,4.39-.14,7.14H774.6a59.36,59.36,0,0,0,8.91-.49v9a63.51,63.51,0,0,0-8.84-.49Z" id="path1288" style="fill:#ffffff"/>
  <path class="cls-1" d="M819.45,166.68a33.33,33.33,0,0,0-.21-3.89h3a37.48,37.48,0,0,0,8.34-5.73H811.18c-2.9,0-4.81.07-7.08.28v-7.07a52.12,52.12,0,0,0,7.15.35h23.41a32.26,32.26,0,0,0,5.37-.28l3.89,4.31c-1.13.92-1.13.92-2.55,2.13a98.61,98.61,0,0,1-14.14,10.32v.07h18.46a58.9,58.9,0,0,0,8.7-.49v7.85a68.31,68.31,0,0,0-8.77-.43H827.23v12.38c0,2.4-.21,3.39-.92,4.38-1.2,1.84-3.47,2.34-10.61,2.34-.56,0-2.69-.07-6.29-.21a26.69,26.69,0,0,0-2.34-7.5,77.11,77.11,0,0,0,8.77.64c3.11,0,3.61-.22,3.61-1.56V174.1H800.28a67.3,67.3,0,0,0-8.62.43v-7.85a60.5,60.5,0,0,0,8.55.49h19.24Zm.21-27.51a41.36,41.36,0,0,0-4.31-8.92l7.35-2.05a54.55,54.55,0,0,1,4.88,11h6a21.37,21.37,0,0,0,2.13-3.26,37.19,37.19,0,0,0,3.67-7.35l7.64,2.12a80.19,80.19,0,0,1-5.3,8.49h3.18a85.29,85.29,0,0,0,8.7-.29,44.83,44.83,0,0,0-.28,5.87v6.58a43.42,43.42,0,0,0,.35,5.38H846v-11H799.86v11h-7.71a31.42,31.42,0,0,0,.35-5.45v-6.51a47,47,0,0,0-.28-5.87,66.41,66.41,0,0,0,8.35.29h3.32a43.63,43.63,0,0,0-5.3-8l7.14-2.12a53,53,0,0,1,6.44,10.12Z" id="path1290" style="fill:#ffffff"/>
  <path class="cls-1" d="M460.06,234.94a100.77,100.77,0,0,0,11.46-3l.07,7.22a92,92,0,0,1-11.53,3.25v21.22c0,6.29-1.84,7.56-10.89,7.56-2,0-3.32-.07-5.59-.14a26.32,26.32,0,0,0-1.69-7.85,58.73,58.73,0,0,0,7.85.57c2.12,0,2.54-.22,2.54-1.35V244.07c-4.52.84-4.52.84-10.46,1.69-.71.07-1.49.29-3.33.64l-1.06-8.2h.85a95.1,95.1,0,0,0,14-1.7v-3.4a38.53,38.53,0,0,0-.42-6.72h2.4a59.9,59.9,0,0,0,7.22-9.26H448a76,76,0,0,0-8.56.42v-7.92a57.54,57.54,0,0,0,8.7.5H462.4a22.94,22.94,0,0,0,5.94-.43l4.1,4.95a19.18,19.18,0,0,0-2.26,2.9A105.81,105.81,0,0,1,460.06,230Zm22.71-26.66a79.27,79.27,0,0,0-.43,9.33v43.71c0,1.77.71,2.05,5.23,2.05,4.74,0,6.09-.56,6.51-2.75a83.7,83.7,0,0,0,.71-13.44,24.26,24.26,0,0,0,7.14,2.61c-.14,8.28-.78,14.15-1.77,16.48a6.05,6.05,0,0,1-4.73,4,35.82,35.82,0,0,1-8.14.71c-5.59,0-8.41-.35-10.25-1.34s-2.55-2.41-2.55-5.73V217.69a79.28,79.28,0,0,0-.42-9.41Z" id="path1292" style="fill:#ffffff"/>
  <path class="cls-1" d="M562.48,234.8a80.07,80.07,0,0,0,9.62-.42v8.55a87.77,87.77,0,0,0-9.62-.42H545.15v20.65c0,6.22-2.33,7.78-11.88,7.78-1.63,0-3-.07-7.85-.28a28.7,28.7,0,0,0-2.19-8.49,62,62,0,0,0,10.25.85c2.9,0,3.4-.28,3.4-1.84V242.51h-19a91.4,91.4,0,0,0-9.62.42v-8.55a86.79,86.79,0,0,0,9.83.42h18.82v-3.11c0-2.26-.07-3.75-.22-5.38h3.68c4.81-2.83,6.79-4.38,12-9.05H524.15a68.42,68.42,0,0,0-8.56.43v-8.35a70.23,70.23,0,0,0,8.49.42h32a29.33,29.33,0,0,0,6.16-.35l4.59,5.16c-1.76,1.7-1.76,1.7-6.64,6.3a97,97,0,0,1-15.07,10.89v3Z" id="path1294" style="fill:#ffffff"/>
  <path class="cls-1" d="M607.25,245.27a33.33,33.33,0,0,0-.21-3.89h3a37.53,37.53,0,0,0,8.35-5.73H599a70.69,70.69,0,0,0-7.07.28v-7.07a52,52,0,0,0,7.14.35h23.41a32.4,32.4,0,0,0,5.38-.28l3.88,4.32c-1.13.91-1.13.91-2.54,2.12A98.7,98.7,0,0,1,615,245.69v.07h18.46a58.81,58.81,0,0,0,8.7-.49v7.85a68.31,68.31,0,0,0-8.77-.43H615v12.38c0,2.41-.21,3.4-.92,4.39-1.2,1.83-3.46,2.33-10.6,2.33-.57,0-2.69-.07-6.3-.21a27,27,0,0,0-2.33-7.5,76.8,76.8,0,0,0,8.77.64c3.11,0,3.6-.22,3.6-1.56V252.69H588.09a67.36,67.36,0,0,0-8.63.43v-7.85a60.56,60.56,0,0,0,8.56.49h19.23Zm.22-27.51a41.88,41.88,0,0,0-4.32-8.92l7.36-2.05a55.12,55.12,0,0,1,4.88,11h6a21.48,21.48,0,0,0,2.12-3.26,37.06,37.06,0,0,0,3.68-7.35l7.64,2.12a80.06,80.06,0,0,1-5.31,8.49h3.19a82.19,82.19,0,0,0,8.69-.29,44.93,44.93,0,0,0-.28,5.87v6.58a41.51,41.51,0,0,0,.36,5.38h-7.71v-11H587.66v11H580a31.42,31.42,0,0,0,.35-5.45v-6.51a47,47,0,0,0-.28-5.87,66.23,66.23,0,0,0,8.34.29h3.33a43.55,43.55,0,0,0-5.31-8l7.14-2.12A52.49,52.49,0,0,1,600,217.76Z" id="path1296" style="fill:#ffffff"/>
  <path class="cls-1" d="M674.59,212.59c-.21.43-.21.57-.49,1.21.85.07,2.83.14,5.16.14h9.19a16.73,16.73,0,0,0-2.82-5l7.21-2.62a49.91,49.91,0,0,1,3.75,7.64h10.54a39.42,39.42,0,0,0,6.29-.36,31.21,31.21,0,0,0-.28,5.1v5.65a37.6,37.6,0,0,0,.28,5.17H706.7v3.32a44.61,44.61,0,0,0-5.52-.28H684.64a42.83,42.83,0,0,0-5.59.28v-3.47h-6.58a10.83,10.83,0,0,0,.14-1.27c.07-.56.14-2.62.14-4v-6.72c-.14.43-.14.43-.28.78-1.63,4.53-1.63,4.53-5.16,12.87,2.54,4,3.53,5.8,4.38,8.21a28.57,28.57,0,0,1,1.63,8.91c0,4.24-1.7,6.93-5,7.85a27.31,27.31,0,0,1-6.93.78c-.22-3.82-.64-5.73-1.77-7.57a24.64,24.64,0,0,0,3.68.28c2.4,0,2.9-.49,2.9-3.11a19.09,19.09,0,0,0-2.55-8.49,36.39,36.39,0,0,0-4.1-6.08,106.44,106.44,0,0,0,5.94-15.84h-7v48.23a62,62,0,0,0,.35,8H651a66.33,66.33,0,0,0,.42-8.13V215.42c0-2.33-.07-4.38-.21-6.58a44.77,44.77,0,0,0,5,.22h10.68a21,21,0,0,0,4.53-.29Zm14,31.55c-.5,7.56-1.7,12.16-4.53,16.62-3,4.95-7.29,8.27-14.85,11.67a23.84,23.84,0,0,0-5-6.23c6.36-2.26,10.11-4.74,13.08-8.56a20.63,20.63,0,0,0,3.61-9c.14-1,.14-1,.42-4.45h-.71a40.69,40.69,0,0,0-6.64.35v-7.28a46.35,46.35,0,0,0,6.64.35h26a42.62,42.62,0,0,0,6.86-.35v7.35a47.86,47.86,0,0,0-6.86-.42h-6.29V263c0,1.13.49,1.34,3.11,1.34s3.25-.35,3.68-1.55.63-3.75.92-8.91a19.85,19.85,0,0,0,6.71,2.26c-1.2,13.51-2.4,15.13-11.74,15.13-7.56,0-10-1.27-10-5.3V244.14Zm-8.7-18.32c1.13.07,2.33.14,4.81.14h16.47c2.34,0,3.4-.07,4.6-.14v-5.09H679.9Z" id="path1298" style="fill:#ffffff"/>
  <g id="_Group_" data-name="&lt;Group&gt;" style="fill:#ffffff">
    <g id="_Group_2" data-name="&lt;Group&gt;" style="fill:#ffffff">
      <path class="cls-2" d="M57.49,239.84,71.89,237l-.55-2.77-14.4,2.89a4.74,4.74,0,1,1-1.87-9.29l14.4-2.89-.55-2.77L54.51,225a7.56,7.56,0,0,0,3,14.83Z" id="path1300" style="fill:#ffffff"/>
    </g>
    <g id="_Group_3" data-name="&lt;Group&gt;" style="fill:#ffffff">
      <polygon class="cls-2" points="78.03 255.31 62.25 261.07 74.68 246.13 73.6 243.18 53.19 250.63 54.16 253.29 69.94 247.53 57.51 262.48 58.58 265.42 79 257.97 78.03 255.31" id="polygon1303" style="fill:#ffffff"/>
    </g>
    <g id="_Group_4" data-name="&lt;Group&gt;" style="fill:#ffffff">
      <rect class="cls-3" x="62.15" y="268.87" width="21.74" height="2.92" transform="translate(-113.62 61.58) rotate(-26.68)" id="rect1306" style="fill:#ffffff"/>
    </g>
    <g id="_Group_5" data-name="&lt;Group&gt;" style="fill:#ffffff">
      <polygon class="cls-2" points="92.99 282.82 75.59 287.35 86.89 273.35 85.27 270.84 71.12 289.01 72.23 290.73 94.61 285.33 92.99 282.82" id="polygon1309" style="fill:#ffffff"/>
    </g>
    <g id="_Group_6" data-name="&lt;Group&gt;" style="fill:#ffffff">
      <polygon class="cls-2" points="89.94 298.75 96.09 305.82 98.01 304.15 91.86 297.08 97.22 292.41 103.37 299.48 105.29 297.81 97.29 288.61 80.89 302.87 88.9 312.07 90.82 310.4 84.67 303.33 89.94 298.75" id="polygon1312" style="fill:#ffffff"/>
    </g>
    <g id="_Group_7" data-name="&lt;Group&gt;" style="fill:#ffffff">
      <path class="cls-2" d="M115.39,307l-5.83-4.93-14,16.6,2.16,1.83,4.47-5.29,3.41,2.88-1.17,8.08,2.47,2.08,1.28-8.59A7.41,7.41,0,0,0,115.39,307Zm-1.23,8.63a4.59,4.59,0,0,1-6.66.72l-3.68-3.11,6.25-7.4,3.68,3.11A4.61,4.61,0,0,1,114.16,315.67Z" id="path1315" style="fill:#ffffff"/>
    </g>
    <g id="_Group_8" data-name="&lt;Group&gt;" style="fill:#ffffff">
      <path class="cls-2" d="M131,317.51c-3.16-1.87-6.84-1.56-8.83,1.8-2.11,3.55.2,6.3,2.83,9.23,1.39,1.54,2.85,3.28,1.55,5.47-1.18,2-3.45,2.28-5.61,1a4.58,4.58,0,0,1-1.73-6.69l-2.43-1.45c-2.36,4-1,8.05,2.75,10.27,3.48,2.06,7.47,1.65,9.55-1.85,2.2-3.71-.32-6.65-2.8-9.46-1.47-1.66-2.75-3.29-1.59-5.24,1.06-1.78,3.08-2,5-.87,2.17,1.28,2.69,3.32,1.41,5.6l2.43,1.44C135.61,323.3,134.52,319.59,131,317.51Z" id="path1318" style="fill:#ffffff"/>
    </g>
    <g id="_Group_9" data-name="&lt;Group&gt;" style="fill:#ffffff">
      <rect class="cls-3" x="128.72" y="333.13" width="21.73" height="2.92" transform="translate(-222.94 331.11) rotate(-66.81)" id="rect1321" style="fill:#ffffff"/>
    </g>
    <g id="_Group_10" data-name="&lt;Group&gt;" style="fill:#ffffff">
      <polygon class="cls-2" points="162.84 330.96 149.32 327.01 148.6 329.45 154 331.03 148.61 349.44 151.32 350.24 156.71 331.82 162.13 333.41 162.84 330.96" id="polygon1324" style="fill:#ffffff"/>
    </g>
    <g id="_Group_11" data-name="&lt;Group&gt;" style="fill:#ffffff">
      <path class="cls-2" d="M170.52,332.14l-10.34,20.53,2.95.4,1.56-3.14,8.73,1.19.69,3.44,3,.4-4.52-22.54Zm-4.62,15.35,5-10.62,2,11.58Z" id="path1327" style="fill:#ffffff"/>
    </g>
    <g id="_Group_12" data-name="&lt;Group&gt;" style="fill:#ffffff">
      <path class="cls-2" d="M190.61,342.22c-2.14-.6-4.09-1.27-4.18-3.53-.08-2.08,1.49-3.39,3.75-3.47,2.52-.1,4.06,1.33,4.23,3.94l2.82-.11c-.19-4-3.11-6.53-7.18-6.38-3.66.15-6.59,2.4-6.43,6.31.15,4.13,3.58,5.18,7.38,6.21,2,.55,4.18,1.21,4.28,3.75.09,2.33-1.65,3.8-4.17,3.89a4.58,4.58,0,0,1-5.09-4.68l-2.82.11c.18,4.62,3.54,7.29,7.89,7.12,4-.15,7.16-2.67,7-6.73C197.93,344.33,194.22,343.23,190.61,342.22Z" id="path1330" style="fill:#ffffff"/>
    </g>
    <g id="_Group_13" data-name="&lt;Group&gt;" style="fill:#ffffff">
      <polygon class="cls-2" points="224.13 344.29 213.48 329.8 210.65 330.72 224.59 349.04 226.54 348.41 227.03 325.4 224.2 326.32 224.13 344.29" id="polygon1333" style="fill:#ffffff"/>
    </g>
    <g id="_Group_14" data-name="&lt;Group&gt;" style="fill:#ffffff">
      <rect class="cls-3" x="235.41" y="321.67" width="2.92" height="21.73" transform="translate(-120.16 134.51) rotate(-25.52)" id="rect1336" style="fill:#ffffff"/>
    </g>
    <g id="_Group_15" data-name="&lt;Group&gt;" style="fill:#ffffff">
      <polygon class="cls-2" points="252.14 333.73 242.01 317.43 239.61 318.92 251.08 337.38 259.52 332.13 258.18 329.97 252.14 333.73" id="polygon1339" style="fill:#ffffff"/>
    </g>
    <g id="_Group_16" data-name="&lt;Group&gt;" style="fill:#ffffff">
      <polygon class="cls-2" points="261.56 302.74 272.49 315.48 254.14 309.1 251.76 311.14 265.91 327.64 268.05 325.8 257.11 313.05 275.47 319.43 277.85 317.39 263.7 300.9 261.56 302.74" id="polygon1342" style="fill:#ffffff"/>
    </g>
    <g id="_Group_17" data-name="&lt;Group&gt;" style="fill:#ffffff">
      <polygon class="cls-2" points="284.68 306.32 279.34 301.82 285.37 294.65 283.43 293.01 277.39 300.19 271.94 295.61 277.98 288.43 276.03 286.79 268.18 296.13 284.81 310.13 292.67 300.79 290.72 299.15 284.68 306.32" id="polygon1345" style="fill:#ffffff"/>
    </g>
    <g id="_Group_18" data-name="&lt;Group&gt;" style="fill:#ffffff">
      <polygon class="cls-2" points="286.38 270.92 300.73 279.67 281.29 279.27 279.66 281.95 298.22 293.27 299.69 290.86 285.34 282.11 304.78 282.51 306.42 279.83 287.86 268.51 286.38 270.92" id="polygon1348" style="fill:#ffffff"/>
    </g>
    <g id="_Group_19" data-name="&lt;Group&gt;" style="fill:#ffffff">
      <path class="cls-2" d="M310.62,256c-4-1.67-6.54,1.23-9,4.08-1.44,1.68-2.87,3.17-5,2.3-1.92-.81-2.44-2.78-1.57-4.87,1-2.32,2.92-3.12,5.35-2.16l1.1-2.61c-3.71-1.52-7.24.07-8.81,3.82-1.41,3.37-.6,7,3,8.49,3.81,1.6,6.21-1.07,8.75-4.07,1.34-1.6,2.86-3.28,5.2-2.3,2.15.9,2.74,3.1,1.77,5.42a4.59,4.59,0,0,1-6.39,2.64l-1.09,2.6c4.26,1.79,8.1-.13,9.78-4.14C315.33,261.45,314.37,257.54,310.62,256Z" id="path1351" style="fill:#ffffff"/>
    </g>
    <g id="_Group_20" data-name="&lt;Group&gt;" style="fill:#ffffff">
      <rect class="cls-3" x="307.18" y="234.96" width="2.92" height="21.73" transform="translate(-15.51 470.8) rotate(-73.3)" id="rect1354" style="fill:#ffffff"/>
    </g>
    <g id="_Group_21" data-name="&lt;Group&gt;" style="fill:#ffffff">
      <path class="cls-2" d="M318.64,224c-4.24-.81-6.15,2.56-7.95,5.85-1.07,1.94-2.16,3.69-4.39,3.26-2-.39-3-2.21-2.53-4.43.47-2.47,2.22-3.66,4.79-3.23l.53-2.77c-3.94-.72-7.06,1.55-7.83,5.55-.69,3.6.85,7,4.69,7.69,4.06.78,5.85-2.32,7.72-5.79,1-1.83,2.12-3.8,4.62-3.32,2.29.44,3.32,2.47,2.85,4.94a4.59,4.59,0,0,1-5.71,3.9l-.54,2.78c4.55.87,7.91-1.81,8.72-6.08C324.37,228.39,322.63,224.77,318.64,224Z" id="path1357" style="fill:#ffffff"/>
    </g>
    <g id="_Group_22" data-name="&lt;Group&gt;" style="fill:#ffffff">
      <path class="cls-2" d="M162.07,258.65a1,1,0,1,0,.64-1.89A1,1,0,1,0,162.07,258.65Z" id="path1360" style="fill:#ffffff"/>
    </g>
    <g id="_Group_23" data-name="&lt;Group&gt;" style="fill:#ffffff">
      <path class="cls-2" d="M265.37,216.2V130.05l-160-.06c0,34.75-.45,69.95-.24,104.54h94.55c1.14-6.23,9.14-13.6,5.32-20.62l-4.59-5.4a21.91,21.91,0,0,0,3.78-1.49l5.05,5a16.19,16.19,0,0,0,1.78,4.94,44.31,44.31,0,0,0-4.76,12.73c-1.64.39-2.39,1.74-1.48,4.85h5.27c.23-3.88,2.46-6.18,3.84-9.61,1.72-4.3,1.89-8.72.11-11-3.84-3-6.94-6.25-10.95-9.69-.46-.12-.92-.52-1.38-.4s.69,1.66,1.26,1.89c-7.34,3.1-14.57,2.18-22.25,1.26a12,12,0,0,1,.57-4.93,10.78,10.78,0,0,1,2.18,3.84c1-.91,2.35-3.5,3.1-4.64l4.64,4.76c.23-3.1.92-8.66,2-10.84a75.41,75.41,0,0,0,10.1,1.66c.46,1.89-.35,5,1.37,5s.86-3.79.75-5a41.23,41.23,0,0,0,5.39.17c.4,1.78.12,4.71,1.61,4.65s.69-3.39.63-4.82a27.09,27.09,0,0,0,4.87-.8c-2.86,5.85-1.72,13.65,2.36,17.61l-4.65,16.06c-1.6.51-1.89,2-.87,4.79h50.54C265.32,229.44,265.37,222.17,265.37,216.2Zm-87.93-75.31.8-4.82L179.5,141l24.55-.8,6.89,1.89-6.77,1.72-24.49.12-.69,5-1.38-4.65h-.86a3.94,3.94,0,0,0-.29-3.27Zm-13.08,51.45a19.18,19.18,0,0,1,9.18-1.55,11.63,11.63,0,0,1,.34,1.89,37,37,0,0,0-10.49,2A4.89,4.89,0,0,1,164.36,192.34Zm-.57-8.26c3.32-2.7,9.35-6.37,14.39-7.28.41,0,.52.28.92.28a33.58,33.58,0,0,0-14.91,12C164,187.46,164,185.69,163.79,184.08Zm1.78,6c2.86-4.93,7.91-8.94,13.82-11.41-.23,1.89.57,2.75,1.78,4.07l-4.42,4.42-2.87,2.12A35.83,35.83,0,0,0,165.57,190ZM186,159.47a9.79,9.79,0,0,0,.63-11,12,12,0,0,1,6.66.23,12.27,12.27,0,0,1-1.84,8.83l1.26,1.9c-1.2.23-3.27.51-4.87.74a24.24,24.24,0,0,0,.4,5.11,23.29,23.29,0,0,1-4.42.8A11.52,11.52,0,0,1,186,159.47Zm-.57-1.83c-1.66-1.38-2.24-4.65-2-6.71.06-.81.8-2,1.72-1.9C186.85,149.84,187.19,156.55,185.47,157.64Zm3.15,9.06a46,46,0,0,0,1.61,6.37c-1.21.4-3.67,1.37-5.39,1.78a26.39,26.39,0,0,1-.86-7.17C185.7,167.39,187,167.1,188.62,166.7Zm2.3,7.92a21.18,21.18,0,0,0,1.14,2.18,54.69,54.69,0,0,0-9.69,4.93c-1-1-2.35-3-.8-3.73Zm-14,14.34,4.48,3.38a1.24,1.24,0,0,1-.06.63c-1.66-.11-4.3-.34-5.91-.46a22.52,22.52,0,0,1-.29-2.29A11.24,11.24,0,0,1,176.92,189Zm1.26-1a35.35,35.35,0,0,1,14.34-9.75,29.15,29.15,0,0,0,3.22,4.25c-.52,1.09-1.9,2.06-4.65,2.81-3.33,1.72-7.4,5.45-8.72,6.13Zm11.42-26.55,12.9-2c1.78,4.7,2.64,19.55-2.58,24C194.19,180.47,189.83,169.17,189.6,161.37Zm-16-20.48a2.51,2.51,0,0,1,1.83,2.58,3.44,3.44,0,0,1-1.09,2.12c.17,2.13.63,7.86.86,11.24l8.66,3.5a11,11,0,0,0-1.26,4.25l-11.24-4.93c0-4.77.17-9.53.34-14.17A2.52,2.52,0,0,1,173.6,140.89Zm-6,1.55a1,1,0,0,1,1.38-.17,1.29,1.29,0,0,1,.17,1.49,1,1,0,0,1-1.43.05C167.23,143.47,167.34,142.9,167.63,142.44Zm4,27a22,22,0,0,1,5.22,6.13,15.61,15.61,0,0,0-2.3.63c-1.66-2.75-5-6.76-8.54-7.74l.57,1.44a15.66,15.66,0,0,1,6.25,6.82,34.09,34.09,0,0,0-9.69,5.91c.29-1.67-.4-3.39.34-5.39,1.27-3.22,1.78-6.66-1.95-8.95a9,9,0,0,0-2.75-.69c-.11-1-.11-2.18-.29-3.15C162.47,164.23,168.32,166.53,171.59,169.4Zm-9.81,10.26-1.78-.11-1.09-10.15c2,.17,3.44,1.14,3.9,2.46C163.73,173.58,161.55,177.71,161.78,179.66Zm-3.1,5.57c-2.23,0-3.21-1.49-3.55-3.27,1.55-.4,4.81-1.09,6.59-.75C162.07,183.56,160.92,185.23,158.68,185.23Zm0-5.62c-.86.17-2.58.45-3.78.74l-.23-.23-2.3-9.46c1-.92,3.62-1.49,5-1.49Zm-6.42-16.87a4,4,0,0,1,2.81,1.95s.86-.11,1.83-.17a29.36,29.36,0,0,1,.35,3c-1.43.18-4.13.69-5.28,1.67l-.86-1.78c-1.2-1.95-.57-1.55-1.55-2.64.86-.06,2.18.69,3.27,1.38C152.6,164.87,152.37,163.83,152.26,162.74Zm-13.82,44.34c.57-2.12.8-4.59,1.66-6.37a58.56,58.56,0,0,1,11.76-6.82,52.46,52.46,0,0,1,10,.51,21.93,21.93,0,0,0-.52,3.16c-3-.23-6-.46-9.18-.46a30,30,0,0,0-9.46,5.16c-.46,1.72.23,3,.51,4.71-1.14.11-3.32.05-4.7.11Zm7.62,2.64c-.63,1-.23,2.52,0,3.67a34.67,34.67,0,0,1-3.67.4,11.11,11.11,0,0,1,1.38-5.28c2.18-2.23,5-4.76,7-6.65a16.54,16.54,0,0,1,2.75-2.52l12.56-.86.06-.41c-.8-.51-2.29-.4-3.21-.4l.17-1.43c3.38-1.55,7.23-2,10.84-2.18-.06,3.1.11,7.11-.4,10.15-4.59.86-13.08-1.83-18.41-1.72Zm33.21-4.93a10.5,10.5,0,0,0,0,3.72c.12,1.21-2.35,1.5-3.84,1.78a36.41,36.41,0,0,0-6.82,2.87c.28-2.29,1.6-3.38,3.15-4.47A10.65,10.65,0,0,0,174.4,207c1.15-2.92,1.15-8.49,1.2-13,1.27.12,4.48.35,5.91.4C182,198.3,179.73,201.46,179.27,204.79ZM193,191a24.77,24.77,0,0,0-3,11.41l-3.73-3.72c-.63,1.14-1.49,3-2.35,4.3-.4-.75-1.26-1.95-1.89-2.93a13.81,13.81,0,0,0,.75-7.17,49.24,49.24,0,0,1,8.77-6.19c2.93-1,4.88-2,5.45-3.27.4.4,1.32,1,2,1.55-1.21,2.12-5.51,4.82-9.24,5.62C190.34,191.08,191.84,191.08,193,191Zm.86,2.52a15,15,0,0,1,1.32-3.15,15.16,15.16,0,0,0,4.36-3c1.61,1.49,3,5.1,3.27,7.57A41.25,41.25,0,0,1,193.84,193.54Zm11,1.44a26.26,26.26,0,0,0-3.79-9.41c1.72-.63,4.19.52,5.56,1.89,2,1.84,3,4.71,3.67,7.58C209.27,195,206.23,195.09,204.86,195ZM232,200a6.36,6.36,0,0,1,1.54,3.56,6.52,6.52,0,0,0-3.78-1.26c.23,1.09.92,2,.4,4l-.06.12a12.61,12.61,0,0,0-2.35-2.75c-2.24-2.41-1.43-6.2-.17-9.76,0-1.49-.75-2.92-2.41-2.92-4.3.69-8.09,4.3-12.39,4-1.49-3.1-2.35-8-6.48-9.81a15.57,15.57,0,0,1,11.41,6.77c3.73-3.21,8.21-7.06,13.54-5.57a4.91,4.91,0,0,1,3.38,4.08c.35,3.27-1.66,7.45,1.78,10.32C235,201.52,233.36,199.57,232,200Z" id="path1363" style="fill:#ffffff"/>
    </g>
    <g id="_Group_24" data-name="&lt;Group&gt;" style="fill:#ffffff">
      <path class="cls-2" d="M260.09,237.67H105.2a83.31,83.31,0,0,0,19.41,51c31.72,37.68,93.9,37.11,124.24-3,10.46-14.62,16.06-28.43,16.44-48.05h-3c0,10-3.39,23.29-6.88,30.21a5.47,5.47,0,0,1-2.18,1.26c-3.21,1.32-4.93,1.21-8.32,2.3-.69.34-1.61.63-1.78,1.14a29.67,29.67,0,0,0,6.89-.92c-1,.64-1.78,1.27-2.47,1.61a202.42,202.42,0,0,1-24.95,12.39c1.66-5.79.63-15.83-2.18-23.17a61.62,61.62,0,0,0,7.51-1.55c2.47,2.29,3.56,7.68,3.73,10.72,1.15-1.43,1.21-2.4,1.32-4.53a24.11,24.11,0,0,0-3-7.17c2.07-.91,4.93-2.52,7.11-3.32s5.39-1.49,6.66-2.13c-.81-.63-3.1-.17-4.42,0,5.33-3.61,12.39-6.42,18.7-8.37-.29-1.09-3.56,0-4.65,0A22.59,22.59,0,0,0,260.09,237.67ZM158.17,256l-.12,41.24a6.61,6.61,0,0,0-1.49-1.32l.12-41.3c0-1.21.22-2,1-2.07,3.67-.34,8.72-.86,12.9-1.49s9.52-1.09,13.94-1.72c.34-.4.23-.8-.23-1.2l-27.64,3.21c-.75.34-1.44,1-1.44,1.26,0,.69-.11,2.64-.11,3.21,0,13.71-.06,26.62-.18,39.52l-1.6-.34c-.23-12.91-.12-27.93-.12-41.87a10,10,0,0,1,.12-2.7c.23-.51,1.6-.51,1.6-.51,9.58-1,19.45-2.36,29.09-3.56.45-.17.4-.75-.18-1.09-9.46,1-20.7,1.89-29.88,3a3.44,3.44,0,0,0-2.18.86,4.73,4.73,0,0,0-.4,2.41c0,14.28.51,29,.17,43.48h-1.32c-.06-14.74-.23-33.33-.23-45.94a2.3,2.3,0,0,1,2.41-2.64c11.87-1,19.22-1.38,28.79-2.58,2.82,0,5.28.28,6.6,2.35,1,1.2.4,3.5-1.43,4.3a12.5,12.5,0,0,1-3.73.86l-22.54,2.58A2.37,2.37,0,0,0,158.17,256Zm23.63-2.76v6l-1.32-.06c-2.3-.4-4-3-4-5.51C178,253.48,180.08,253.42,181.8,253.25Zm-22.26,3.9c0-1,.18-1.89,1.32-2s3.16-.23,4.94-.35c-.06,4.13-1.67,6.14-6.26,6.14C159.54,259.73,159.6,258.64,159.54,257.15Zm2.07,44.17a1.85,1.85,0,0,1-1.78-1.26v-5.51a6.7,6.7,0,0,1,4.24,1.38,6.29,6.29,0,0,1,2.18,5A40.24,40.24,0,0,1,161.61,301.32Zm6.19-.46c-.05-2.12-.86-4.93-2.81-6.25a8.16,8.16,0,0,0-5.16-1.38l-.23-30.91c4.59.05,7.86-2.18,7.63-7.69l7.69-.86a6.89,6.89,0,0,0,6.94,7.11l.86,30.34c-5.05,1.44-6.66,4.19-6.31,8.66ZM178,299.54c-.11-3.1.46-5.45,4.59-6.6.17.06.29,5.91.29,6A44.33,44.33,0,0,1,178,299.54Zm5.45-46.63c1.32-.23,3.61-.57,4.76-2.12.58,1.32-.06,2.41-1.15,3.21a9.48,9.48,0,0,1-3.67,1.32C183.4,254.86,183.23,253,183.46,252.91Zm0,4a8.52,8.52,0,0,0,4.82-1.89v8.89c-.52,1.84-2.52,2.3-4.82,2.93Zm.17,11.42a10,10,0,0,0,4.82-2.07,1.75,1.75,0,0,1,0,2.3,8.9,8.9,0,0,1-4.7,1.72A7.4,7.4,0,0,1,183.63,268.34Zm.12,3.5a10.34,10.34,0,0,0,4.3-1.27l.11,7.86L184,280.78Zm.51,13.7c.52.12.75-.05,1,.81.17.46,1.2.63,2.12,1a2.37,2.37,0,0,0,1.78.92c-.06,1,0,3.84,0,5,0,1.43-3.9,2.29-4.82,2.24Zm4.59,11.94a10.52,10.52,0,0,1-4.36,1.37l-.05-1.49a10.54,10.54,0,0,0,5.22-2.12A2,2,0,0,1,188.85,297.48Zm32.07-11.76c-.23,1-.81,1-1.32.69a18.31,18.31,0,0,1-2.81-9.24,13.07,13.07,0,0,1,4.41-2.92A40.79,40.79,0,0,1,220.92,285.72Zm.05-13c-7.63,3.1-12.79,11.93-21.79,13.14a33.77,33.77,0,0,0,4.93-3c.06-.4-.17-.52-.57-.52-3.22,1.72-5.22,3.16-8.26,4l-5.17,1c-.28-.05-.8.12-1.09-.51,1.27-.69,5.22-1.84,7.29-2.87a33.1,33.1,0,0,0,5.62-3.33c.17-.34.06-.86-.69-.69a58.54,58.54,0,0,1-5.27,2.76,51.1,51.1,0,0,1-7.75,2.92c-.8.17-1.66-.06-1.83-.46.28-.17-.12-.34.86-.8,1.2-.63,4.53-1.72,6.82-2.93a38,38,0,0,0,5.85-3.49c.17-.46,0-.75-.69-.52a67.61,67.61,0,0,1-12.9,6,3.56,3.56,0,0,1-2.12.17v-1.21l6.65-3.5a31.9,31.9,0,0,0,5.62-3.49l5.11-4.48v-.74c-3.56.57-7.4,1.66-11.48,0v-.52c1.95-.52,4.08-.8,6-1.32,3.21-.86,6.19-2.35,9.75-3.15,3.9-.58,8.83-.64,13.14-1.09A20.61,20.61,0,0,1,221,272.75Z" id="path1366" style="fill:#ffffff"/>
    </g>
    <g id="_Group_25" data-name="&lt;Group&gt;" style="fill:#ffffff">
      <path class="cls-2" d="M163,297.24a1.23,1.23,0,0,0-.92,2.29A1.23,1.23,0,0,0,163,297.24Z" id="path1369" style="fill:#ffffff"/>
    </g>
    <g id="_Group_26" data-name="&lt;Group&gt;" style="fill:#ffffff">
      <path class="cls-2" d="M177.64,275.23c-.06-2.23-1.49-2.69-3.44-2.81a4,4,0,0,0-.92-2.92c-2.41-1.15-5.39.17-4.65,3.27-1.32.23-3.78,1.09-3.61,3.32s1.49,2.87,4.07,2.76c.12,1.89,1.32,4,3.21,3.73s2.3-2.41,2.3-4.65C176.09,277.93,177.87,277.13,177.64,275.23ZM173.22,277c.06,1.67.57,3.79-1,4-2.3.23-1.26-2.58-1.89-3.5-1-.4-3.27.63-3.79-1.15.23-2.29,2.24-2.06,3.67-2.35-.17-1.66-1.09-3,1.32-3.61,1.95.17,1.2,1.83,1.38,3,1.26.05,3.44-.23,3.5,1.66S174.6,276.44,173.22,277Z" id="path1372" style="fill:#ffffff"/>
    </g>
    <g id="_Group_27" data-name="&lt;Group&gt;" style="fill:#ffffff">
      <path class="cls-2" d="M200.32,177.6c-.23-1.32-.57-2.81-.74-4,1.26-.17,2.06-.23,2.87-.4l-.35-2.12c-1,.29-1.26.23-2.69.63-.29-1.32-.46-2.41-.75-4,1-.12,2-.18,2.87-.29-.06-.63-.12-1.32-.17-2-.69.17-2.24.35-3,.63a22.4,22.4,0,0,1-.52-4.18c-.46.17-1.78.22-2.18.4a28.53,28.53,0,0,1,.86,4.07c-.86.11-1.72.29-3,.4l.29,1.89c1-.17,2.58-.57,3.1-.57.23,1.61.45,2.7.57,4a19.38,19.38,0,0,1-3,.46l.46,2.12a20.92,20.92,0,0,0,2.81-.75,36,36,0,0,1,.11,4.19A14,14,0,0,0,200.32,177.6Z" id="path1375" style="fill:#ffffff"/>
    </g>
    <g id="_Group_28" data-name="&lt;Group&gt;" style="fill:#ffffff">
      <path class="cls-2" d="M181.15,296a1.09,1.09,0,1,0-1.09,1.89C181.49,298.56,182.3,296.5,181.15,296Z" id="path1378" style="fill:#ffffff"/>
    </g>
    <g id="_Group_29" data-name="&lt;Group&gt;" style="fill:#ffffff">
      <path class="cls-2" d="M156.45,173.76a1.44,1.44,0,0,0-.29-1.61c-.52-.12-.69-.4-1.21,0a2,2,0,0,0,.12,1.72C155.7,174.21,156.33,174.27,156.45,173.76Z" id="path1381" style="fill:#ffffff"/>
    </g>
    <g id="_Group_30" data-name="&lt;Group&gt;" style="fill:#ffffff">
      <path class="cls-2" d="M179.27,256.87a1,1,0,0,0,.52-1.83C178.47,254.52,178.12,256.7,179.27,256.87Z" id="path1384" style="fill:#ffffff"/>
    </g>
    <g id="_Group_31" data-name="&lt;Group&gt;" style="fill:#ffffff">
      <polygon class="cls-2" points="68.7 172.79 48.64 161.52 48.11 164.46 63.93 172.98 46.14 175.55 45.61 178.48 68.34 174.81 68.7 172.79" id="polygon1387" style="fill:#ffffff"/>
    </g>
    <g id="_Group_32" data-name="&lt;Group&gt;" style="fill:#ffffff">
      <rect class="cls-3" x="59.91" y="145.63" width="2.92" height="21.74" transform="translate(-105.96 172.63) rotate(-74.09)" id="rect1390" style="fill:#ffffff"/>
    </g>
    <g id="_Group_33" data-name="&lt;Group&gt;" style="fill:#ffffff">
      <polygon class="cls-2" points="78.01 141.83 75.63 140.92 73.07 147.55 55.17 140.64 54.16 143.27 74.43 151.1 78.01 141.83" id="polygon1393" style="fill:#ffffff"/>
    </g>
    <g id="_Group_34" data-name="&lt;Group&gt;" style="fill:#ffffff">
      <polygon class="cls-2" points="81.01 135.41 66.24 127.41 85.67 126.81 87.16 124.05 68.05 113.7 66.7 116.19 81.47 124.19 62.05 124.79 60.55 127.55 79.66 137.89 81.01 135.41" id="polygon1396" style="fill:#ffffff"/>
    </g>
    <g id="_Group_35" data-name="&lt;Group&gt;" style="fill:#ffffff">
      <rect class="cls-3" x="81.49" y="100.26" width="2.92" height="21.74" transform="translate(-55.67 114.89) rotate(-54.82)" id="rect1399" style="fill:#ffffff"/>
    </g>
    <g id="_Group_36" data-name="&lt;Group&gt;" style="fill:#ffffff">
      <path class="cls-2" d="M97.07,110.26l-1.75-3,5.84-6.6,3.25,1.34,2-2.24L85.12,91,83.77,92.5l11.32,20ZM87.93,94.77l10.72,4.79L94,104.87Z" id="path1402" style="fill:#ffffff"/>
    </g>
    <g id="_Group_37" data-name="&lt;Group&gt;" style="fill:#ffffff">
      <path class="cls-2" d="M114.43,93.44a7.34,7.34,0,0,0,1-10.65L106,71.53l-2.16,1.81,9.43,11.26A4.74,4.74,0,1,1,106,90.68L96.54,79.43l-2.17,1.81,9.44,11.26A7.32,7.32,0,0,0,114.43,93.44Z" id="path1405" style="fill:#ffffff"/>
    </g>
    <g id="_Group_38" data-name="&lt;Group&gt;" style="fill:#ffffff">
      <path class="cls-2" d="M125.16,73.41c2-.49,4.25-.94,5.55,1.25,1.19,2,.36,4.12-1.81,5.41a4.59,4.59,0,0,1-6.7-1.69l-2.43,1.44c2.36,4,6.59,4.72,10.33,2.5,3.47-2.06,5-5.77,3-9.26-2.21-3.71-6-2.91-9.65-2.07-2.16.49-4.2.83-5.35-1.12-1.07-1.79-.31-3.68,1.64-4.84,2.16-1.28,4.2-.76,5.58,1.45L127.7,65c-2.07-3.43-5.84-4.26-9.34-2.18-3.15,1.87-4.65,5.25-2.65,8.61C117.82,75,121.33,74.31,125.16,73.41Z" id="path1408" style="fill:#ffffff"/>
    </g>
    <g id="_Group_39" data-name="&lt;Group&gt;" style="fill:#ffffff">
      <path class="cls-2" d="M156.8,70.91a7.35,7.35,0,0,0,5.29-9.29l-3.91-14.16-2.73.76,3.92,14.15a4.74,4.74,0,1,1-9.13,2.52l-3.91-14.15-2.73.75,3.92,14.16A7.32,7.32,0,0,0,156.8,70.91Z" id="path1411" style="fill:#ffffff"/>
    </g>
    <g id="_Group_40" data-name="&lt;Group&gt;" style="fill:#ffffff">
      <polygon class="cls-2" points="171.4 67.32 170.03 50.59 181.15 66.52 184.27 66.27 182.49 44.61 179.68 44.84 181.05 61.58 169.93 45.64 166.81 45.9 168.59 67.55 171.4 67.32" id="polygon1414" style="fill:#ffffff"/>
    </g>
    <g id="_Group_41" data-name="&lt;Group&gt;" style="fill:#ffffff">
      <rect class="cls-3" x="181.52" y="54.44" width="21.74" height="2.92" transform="translate(125.07 244.59) rotate(-86.57)" id="rect1417" style="fill:#ffffff"/>
    </g>
    <g id="_Group_42" data-name="&lt;Group&gt;" style="fill:#ffffff">
      <polygon class="cls-2" points="206.55 68.69 218.11 48.79 215.18 48.22 206.43 63.92 204.12 46.08 201.2 45.52 204.54 68.3 206.55 68.69" id="polygon1420" style="fill:#ffffff"/>
    </g>
    <g id="_Group_43" data-name="&lt;Group&gt;" style="fill:#ffffff">
      <polygon class="cls-2" points="228.27 75.37 229.16 72.98 220.36 69.73 222.78 63.18 231.58 66.43 232.46 64.04 223.67 60.79 226.13 54.12 234.93 57.37 235.81 54.99 224.37 50.75 216.83 71.14 228.27 75.37" id="polygon1423" style="fill:#ffffff"/>
    </g>
    <g id="_Group_44" data-name="&lt;Group&gt;" style="fill:#ffffff">
      <path class="cls-2" d="M235.25,78.81l3.42-6L242.56,75l.33,8.15,2.8,1.59-.31-8.67a7.41,7.41,0,0,0,4.8-13.78l-6.64-3.77L232.79,77.42Zm9.48-16.67,4.19,2.38a4.84,4.84,0,0,1-4.79,8.41l-4.19-2.37Z" id="path1426" style="fill:#ffffff"/>
    </g>
    <g id="_Group_45" data-name="&lt;Group&gt;" style="fill:#ffffff">
      <path class="cls-2" d="M252.78,81.27c-2.89,3.61-2.1,7.83,1.29,10.55,3.15,2.53,7.17,2.68,9.71-.49,2.7-3.37.62-6.63-1.45-9.76-1.22-1.85-2.25-3.64-.83-5.41,1.3-1.62,3.33-1.58,5.1-.16,2,1.57,2.19,3.67.61,5.74l2.2,1.77c2.49-3.14,1.93-7-1.24-9.52-2.86-2.29-6.55-2.5-9,.55-2.58,3.22-.68,6.26,1.52,9.53,1.16,1.73,2.36,3.65.77,5.64-1.46,1.81-3.74,1.78-5.7.2A4.59,4.59,0,0,1,255,83Z" id="path1429" style="fill:#ffffff"/>
    </g>
    <g id="_Group_46" data-name="&lt;Group&gt;" style="fill:#ffffff">
      <rect class="cls-3" x="261.96" y="92.03" width="21.74" height="2.92" transform="translate(12.76 218.15) rotate(-44.53)" id="rect1432" style="fill:#ffffff"/>
    </g>
    <g id="_Group_47" data-name="&lt;Group&gt;" style="fill:#ffffff">
      <polygon class="cls-2" points="272.93 109.86 274.7 112.06 289.68 100.08 293.21 104.49 295.19 102.9 286.39 91.89 284.4 93.48 287.91 97.87 272.93 109.86" id="polygon1435" style="fill:#ffffff"/>
    </g>
    <g id="_Group_48" data-name="&lt;Group&gt;" style="fill:#ffffff">
      <polygon class="cls-2" points="286.83 130.26 289.01 128.94 284.13 120.93 290.11 117.3 294.98 125.31 297.15 123.98 292.28 115.97 298.36 112.28 303.23 120.29 305.41 118.96 299.06 108.54 280.49 119.84 286.83 130.26" id="polygon1438" style="fill:#ffffff"/>
    </g>
    <g id="_Group_49" data-name="&lt;Group&gt;" style="fill:#ffffff">
      <polygon class="cls-2" points="291.06 138.96 292.22 141.54 309.73 133.69 312.04 138.85 314.36 137.81 308.6 124.94 306.27 125.99 308.57 131.12 291.06 138.96" id="polygon1441" style="fill:#ffffff"/>
    </g>
    <g id="_Group_50" data-name="&lt;Group&gt;" style="fill:#ffffff">
      <path class="cls-2" d="M295.66,149.91l3.51.05,2.68,8.4-2.82,2.1.91,2.84,18.42-13.75-.62-2-23-.53Zm18,.1L304,156.75,301.89,150Z" id="path1444" style="fill:#ffffff"/>
    </g>
    <g id="_Group_51" data-name="&lt;Group&gt;" style="fill:#ffffff">
      <path class="cls-2" d="M316.55,163.7c-4.06.74-4.61,4.28-5.09,8.19-.26,2.07-.6,4.31-3.11,4.77-2.29.42-4-1.1-4.44-3.58a4.59,4.59,0,0,1,3.91-5.7l-.51-2.78c-4.55.83-6.71,4.54-5.93,8.82.73,4,3.66,6.72,7.66,6,4.25-.77,4.81-4.6,5.3-8.32.29-2.2.68-4.23,2.9-4.64,2.05-.37,3.56,1,4,3.22.45,2.48-.74,4.21-3.3,4.74l.51,2.78c3.94-.75,6-4,5.29-8C323.05,165.57,320.4,163,316.55,163.7Z" id="path1447" style="fill:#ffffff"/>
    </g>
    <g id="_Group_52" data-name="&lt;Group&gt;" style="fill:#ffffff">
      <path class="cls-2" d="M162.22,113.76V95.66H160c0,2.17-.62,3-3.86,3v1.88h3.68v13.22Z" id="path1450" style="fill:#ffffff"/>
    </g>
    <g id="_Group_53" data-name="&lt;Group&gt;" style="fill:#ffffff">
      <polygon class="cls-2" points="187.51 113.76 190.02 113.76 198.06 95.66 186.84 95.66 186.84 97.78 194.7 97.78 187.51 113.76" id="polygon1453" style="fill:#ffffff"/>
    </g>
    <g id="_Group_54" data-name="&lt;Group&gt;" style="fill:#ffffff">
      <path class="cls-2" d="M207.85,113.76l5.38-8.64a6.84,6.84,0,0,0,1.09-3.64,6.2,6.2,0,1,0-6.16,6.2,2,2,0,0,0,1.12-.28l-4.14,6.36Zm.29-8.2a4,4,0,1,1,3.83-4A3.84,3.84,0,0,1,208.14,105.56Z" id="path1456" style="fill:#ffffff"/>
    </g>
    <g id="_Group_55" data-name="&lt;Group&gt;" style="fill:#ffffff">
      <circle class="cls-3" cx="145.16" cy="105.01" r="2.93" id="circle1459" style="fill:#ffffff"/>
    </g>
    <g id="_Group_56" data-name="&lt;Group&gt;" style="fill:#ffffff">
      <path class="cls-2" d="M228.23,105.12a2.94,2.94,0,1,0-2.93,2.94A2.93,2.93,0,0,0,228.23,105.12Z" id="path1462" style="fill:#ffffff"/>
    </g>
    <g id="_Group_57" data-name="&lt;Group&gt;" style="fill:#ffffff">
      <circle class="cls-3" cx="57.45" cy="200.49" r="2.93" id="circle1465" style="fill:#ffffff"/>
    </g>
    <g id="_Group_58" data-name="&lt;Group&gt;" style="fill:#ffffff">
      <path class="cls-2" d="M312.69,198.31a2.94,2.94,0,1,0,4.14.27A2.94,2.94,0,0,0,312.69,198.31Z" id="path1468" style="fill:#ffffff"/>
    </g>
    <path class="cls-3" d="M176.86,101.37a5,5,0,0,0-4.19,1.84v-5.5h8.72V95.57h-10.9v10h2.24a3.63,3.63,0,0,1,3.81-2.28c2.24,0,3.64,1.57,3.64,4.1s-1.51,4.21-4,4.21c-1.87,0-3.25-.92-3.55-2.43h-2.19c.38,2.7,2.48,4.56,5.71,4.56a6.07,6.07,0,0,0,6.29-6.42C182.49,103.71,180.31,101.37,176.86,101.37Z" id="path1471" style="fill:#ffffff"/>
  </g>
  <g id="_Group_59" data-name="&lt;Group&gt;" style="fill:#ffffff">
    <rect class="cls-3" x="377.73" y="45.46" width="3.93" height="309.07" id="rect1474" style="fill:#ffffff"/>
  </g>
</svg>